<?xml version="1.0" encoding="utf-8"?>
<!-- Generator: Adobe Illustrator 25.0.1, SVG Export Plug-In . SVG Version: 6.00 Build 0)  -->
<svg version="1.1" id="Ebene_1" xmlns="http://www.w3.org/2000/svg" xmlns:xlink="http://www.w3.org/1999/xlink" x="0px" y="0px"
	 viewBox="0 0 750 500" style="enable-background:new 0 0 750 500;" xml:space="preserve">
<style type="text/css">
	.st0{opacity:0.4;fill:#EBEBEB;enable-background:new    ;}
	.st1{fill:#EBEBEB;}
	.st2{fill:#FFFFFF;}
	.st3{fill:#DBDBDB;}
	.st4{fill:#C7C7C7;}
	.st5{fill:#263238;}
	.st6{fill:#023B68;}
	.st7{opacity:0.3;enable-background:new    ;}
	.st8{fill:#37474F;}
	.st9{fill:#455A64;}
	.st10{opacity:0.4;enable-background:new    ;}
	.st11{opacity:0.2;enable-background:new    ;}
	.st12{opacity:0.1;enable-background:new    ;}
	.st13{opacity:0.2;}
	.st14{fill:#D3766A;}
	.st15{fill:#FF99BA;}
	.st16{opacity:0.5;}
</style>
<g id="freepik--background-complete--inject-18">
	<path class="st0" d="M693,238.5H585.3c0,0,10.7-29.2,27.1-29.2s21.5,20.1,21.5,20.1s11.1-10.9,20.2-10.9s17,14.4,17,14.4
		S684.1,225.2,693,238.5z"/>
	<path class="st1" d="M284.8,137.4H177.1c0,0,10.7-29.2,27.1-29.2s21.6,20.1,21.6,20.1s11.1-10.9,20.2-10.9s17,14.4,17,14.4
		S275.9,124.2,284.8,137.4z"/>
	<path class="st1" d="M505.7,206.9h-50.3c0,0,11.2-16.3,20.1-16.3s11.5,10.9,11.5,10.9s6.2-5.1,12-4.2S505.7,206.9,505.7,206.9z"/>
	<path class="st1" d="M302.3,248.4H252c0,0,11.2-16.3,20.1-16.3s11.5,10.9,11.5,10.9s6.2-5.1,12-4.2S302.3,248.4,302.3,248.4z"/>
	<path class="st0" d="M153.6,215.6h-98c0,0,13.4-30,27.8-31.8s21.2,22.3,21.2,22.3s9.3-8.5,16.6-8.5c7.3,0,12.9,11.2,12.9,11.2
		S148.6,201.1,153.6,215.6z"/>
	<path class="st0" d="M351,171.4h-66.2c0,0,11.4-21.7,23.7-22s18.8,16.4,18.8,16.4S346.5,150.4,351,171.4z"/>
	<path class="st1" d="M694.5,195.1h-66.2c0,0,11.4-21.7,23.7-22s18.8,16.4,18.8,16.4S690,174.1,694.5,195.1z"/>
	<path class="st1" d="M215,369.5c3.5-0.9,7.6-0.1,7.8-0.4s-0.1-2,1-1.3s1.4,1.8,2.2,2.3l0.2,0.1c0.8,0.4,2.4,0.5,3,1.4
		s-1.4,1.2-1.4,1.2c0.8,1.7,1.4,3.4,1.8,5.2c0.5,2.6,0.5,6.3-1.1,6.2s-2.4-2-3.2-2.1s-1.8,1.6-3.3,1c-0.4-0.2-0.8-0.5-1-0.9
		c-0.7-1.1-1-2.6-1.5-3c-0.7-0.6-3,0.5-4.4-0.9s0.4-2.4-0.3-3.4s-2.4-0.9-3.1-2.1S211.5,370.4,215,369.5z"/>
	<path class="st2" d="M225.7,375.3c0.2,2,0.1,4-0.4,5.9c-0.1,0.3,0.6,0.7,0.6,0.3c0.5-2,0.6-4,0.4-6
		C226.3,375.1,225.6,374.9,225.7,375.3z"/>
	<path class="st2" d="M225.9,374.3c0.4,0.3,0.7-0.1,0.3-0.4S225.5,374,225.9,374.3z"/>
	<path class="st2" d="M219.8,377.7c-0.2,0.3,0.4,0.7,0.6,0.4l3.8-5c0.2-0.3-0.4-0.7-0.6-0.5L219.8,377.7z"/>
	<path class="st2" d="M216.4,374c2-1.1,4.2-1.8,6.5-2.1c0.4,0,0-0.6-0.4-0.6c-2.3,0.3-4.6,1-6.7,2.1
		C215.6,373.6,216,374.1,216.4,374z"/>
	<path class="st2" d="M215.3,374.3c0.4,0.3,0.7-0.1,0.3-0.4S214.9,374,215.3,374.3z"/>
	<path class="st1" d="M597.9,372.7c-1.9,5.3-6.4,10-6.1,10.5s2.6,1.5,0.8,2.4s-3.5,0.4-4.8,0.9c-0.1,0-0.2,0.1-0.3,0.1
		c-1.3,0.7-2.7,2.8-4.4,2.6s-0.3-2.9-0.3-2.9c-2.8-0.4-5.6-1.1-8.3-2.1c-3.8-1.5-8.5-4.7-7-6.7s4.6-1.4,5.4-2.4s-0.6-3.8,1.5-5.1
		c0.6-0.4,1.3-0.5,2.1-0.5c2,0,4.2,1,5.2,0.6c1.3-0.5,1.9-4.4,4.8-4.9s2.8,2.6,4.7,2.4s3.2-2.3,5.4-2.2S599.7,367.4,597.9,372.7z"/>
	<path class="st2" d="M581.3,381.7c-2.8-1.4-5.2-3.3-7.3-5.5c-0.4-0.4-1.3,0.2-1,0.6c2.1,2.3,4.7,4.2,7.5,5.7
		C581.1,382.6,581.9,381.9,581.3,381.7z"/>
	<path class="st2" d="M582.4,382.7c-0.7,0.2-0.4,1,0.3,0.8S583.1,382.5,582.4,382.7z"/>
	<path class="st2" d="M583.2,371.9c-0.2-0.5-1.2-0.1-1.1,0.4c1.1,3.1,2.2,6.1,3.3,9.2c0.2,0.5,1.2,0.1,1.1-0.4L583.2,371.9z"/>
	<path class="st2" d="M591,370.6c-0.3,3.6-1.2,7.1-2.9,10.3c-0.3,0.5,0.8,0.6,1.1,0c1.6-3.3,2.6-6.8,2.9-10.5
		C592.1,369.9,591,370.1,591,370.6z"/>
	<path class="st2" d="M591.4,369c-0.7,0.2-0.4,1,0.3,0.8S592.1,368.8,591.4,369z"/>
	<path class="st1" d="M581.3,356.2c-3.7,2.1-8.6,2.5-8.7,2.9s0.8,2.2-0.7,1.8s-2.2-1.5-3.2-1.9c-0.1,0-0.2-0.1-0.2-0.1
		c-1.1-0.2-2.9,0.3-3.8-0.7s1.2-1.8,1.2-1.8c-1.4-1.6-2.7-3.4-3.7-5.3c-1.4-2.7-2.5-6.9-0.7-7.3s3.3,1.5,4.3,1.3s1.5-2.5,3.4-2.1
		c0.5,0.1,1,0.4,1.4,0.8c1.1,1,1.9,2.6,2.6,2.9c1,0.4,3.3-1.6,5.2-0.4s0.3,2.9,1.5,3.7s3,0.3,4.2,1.4S585,354.1,581.3,356.2z"/>
	<path class="st2" d="M567.4,353.1c-0.9-2.2-1.4-4.5-1.4-6.8c0-0.4-0.9-0.6-0.8-0.1c0,2.4,0.5,4.7,1.4,7
		C566.8,353.5,567.6,353.5,567.4,353.1z"/>
	<path class="st2" d="M567.5,354.2c-0.5-0.2-0.7,0.4-0.2,0.6S568,354.4,567.5,354.2z"/>
	<path class="st2" d="M573.3,348.4c0.1-0.4-0.7-0.7-0.8-0.3l-2.7,6.9c-0.2,0.4,0.7,0.7,0.8,0.3C571.5,353,572.4,350.7,573.3,348.4z"
		/>
	<path class="st2" d="M578.4,351.6c-1.9,1.9-4.2,3.4-6.7,4.4c-0.4,0.2,0.2,0.7,0.6,0.6c2.6-1.1,4.9-2.6,6.9-4.6
		C579.4,351.8,578.7,351.3,578.4,351.6z"/>
	<path class="st2" d="M579.5,350.9c-0.5-0.2-0.7,0.4-0.2,0.6S580,351.1,579.5,350.9z"/>
	<path class="st3" d="M195.2,399.2c-0.3,0.5,3.9,6,2.4,6.6s-11.8-4-12.9-4c-1.7,0.6-3.3,1.3-4.9,2c-2.6,1.1-5.6,2.2-7.1,1.8
		c-2.8-0.9,3.8-6.5,3-6.8s-10-3.2-9.1-4.4s11.7-0.7,12.5-0.8s2.2-7.1,4.9-7.3c0.3,0,0.6,0,0.9,0.1l0,0c2.5,0.9,5.2,6.2,6.6,7.1
		c0.7,0.5,12.5-1,13.7,0S195.5,398.6,195.2,399.2z"/>
	<path class="st2" d="M184.1,387.2c-1.4,0-1.4,1.1,0,1.1S185.5,387.2,184.1,387.2z"/>
	<path class="st2" d="M184.5,389.3c-1.4,0-1.4,1.1,0,1.1S185.9,389.3,184.5,389.3z"/>
	<path class="st2" d="M184.7,391.4c-1.4,0-1.4,1.1,0,1.1S186.1,391.4,184.7,391.4z"/>
	<path class="st2" d="M185.2,393.6c-1.4,0-1.4,1.1,0,1.1S186.6,393.6,185.2,393.6z"/>
	<path class="st2" d="M185.5,395.6c-2.3,0-2.3,1.9,0,1.9S187.8,395.6,185.5,395.6z"/>
	<path class="st2" d="M189.4,395.6c-1.4,0-1.4,1.1,0,1.1S190.8,395.6,189.4,395.6z"/>
	<path class="st2" d="M193.6,395.3c-1.4,0-1.4,1.1,0,1.1S194.9,395.3,193.6,395.3z"/>
	<path class="st2" d="M197.8,394.7c-1.4,0-1.4,1.1,0,1.1S199.2,394.7,197.8,394.7z"/>
	<path class="st2" d="M201.5,394.1c-1.4,0-1.4,1.1,0,1.1S202.9,394.1,201.5,394.1z"/>
	<path class="st2" d="M187.9,397.9c-1.4,0-1.4,1.1,0,1.1S189.3,397.9,187.9,397.9z"/>
	<path class="st2" d="M190,399.7c-1.4,0-1.4,1.1,0,1.1S191.4,399.7,190,399.7z"/>
	<path class="st2" d="M192.5,401.4c-1.4,0-1.4,1.1,0,1.1S193.9,401.4,192.5,401.4z"/>
	<path class="st2" d="M195.1,403.3c-1.4,0-1.4,1.1,0,1.1S196.4,403.3,195.1,403.3z"/>
	<path class="st2" d="M183,397.9c-1.4,0-1.4,1.1,0,1.1S184.4,397.9,183,397.9z"/>
	<path class="st2" d="M180.5,399.5c-1.4,0-1.4,1.1,0,1.1S181.9,399.5,180.5,399.5z"/>
	<path class="st2" d="M178.2,401.3c-1.4,0-1.4,1.1,0,1.1S179.6,401.3,178.2,401.3z"/>
	<path class="st2" d="M175.7,403.2c-1.4,0-1.4,1.1,0,1.1S177.1,403.2,175.7,403.2z"/>
	<path class="st2" d="M181.4,395.6c-1.4,0-1.4,1.1,0,1.1S182.8,395.6,181.4,395.6z"/>
	<path class="st2" d="M177.7,395.4c-1.4,0-1.4,1.1,0,1.1S179.1,395.4,177.7,395.4z"/>
	<path class="st2" d="M173.8,395.1c-1.4,0-1.4,1.1,0,1.1S175.1,395.1,173.8,395.1z"/>
	<path class="st2" d="M170,394.5c-1.4,0-1.4,1.1,0,1.1S171.4,394.5,170,394.5z"/>
</g>
<g id="freepik--Shadow--inject-18">
	<ellipse class="st1" cx="375" cy="442.7" rx="188.5" ry="16.3"/>
</g>
<g id="freepik--Water--inject-18">
	<path class="st1" d="M698.2,263.3H329.4c-27.8,0-0.2,7.5,22.9,8.3s92.8,4.8,92.6,10S408,292.9,408,300.7s106.7,14,111.5,18.5
		s-11.5,5.9-4.4,10.7c5.3,3.6,80.7,7,112.2,11.9c10.5,1.6-6.4,9.9,10.4,16.8c7.5,3.1,60.6,5.6,60.6,5.6L698.2,263.3z"/>
	<path class="st4" d="M698.2,263.3H373c-24.5,0-0.2,7.5,20.1,8.3s81.8,4.8,81.6,10s-32.5,11.2-32.5,19s94.1,14,98.3,18.5
		s-10.1,5.9-3.8,10.7c4.7,3.6,71.2,7,98.9,11.9c9.2,1.6-5.6,9.9,9.2,16.8c6.6,3.1,53.4,5.6,53.4,5.6V263.3z"/>
	<path class="st2" d="M381,265.2c1.2,0.3,2.4,0.5,3.5,0.6c1.2,0.1,2.4,0.3,3.6,0.4c2.4,0.2,4.8,0.4,7.2,0.6l14.4,1.1l28.8,2.4
		c9.6,0.9,19.2,1.7,28.8,3c2.4,0.3,4.8,0.7,7.2,1.2c1.2,0.3,2.3,0.7,3.5,1.2c1.2,0.5,2.2,1.2,3,2.2c0.4,0.5,0.6,1.2,0.5,1.9
		c-0.1,0.6-0.4,1.2-0.8,1.7c-0.8,0.9-1.7,1.7-2.8,2.4c-2.1,1.3-4.2,2.4-6.5,3.3c2.2-1,4.3-2.2,6.3-3.5c1-0.7,1.9-1.5,2.6-2.4
		c0.4-0.4,0.6-1,0.7-1.5c0.1-0.5-0.1-1.1-0.5-1.5c-0.8-0.9-1.7-1.6-2.8-2c-1.1-0.5-2.2-0.9-3.4-1.1c-2.3-0.5-4.7-0.8-7.1-1.1
		c-9.6-1.1-19.2-2-28.8-2.8l-28.8-2.6c-4.8-0.5-9.6-0.9-14.4-1.4c-2.4-0.3-4.8-0.6-7.2-0.9c-1.2-0.2-2.4-0.3-3.6-0.5
		C383.3,265.8,382.1,265.5,381,265.2z"/>
	<path class="st2" d="M483.5,298.3c2.3,0.6,4.7,1.1,7.1,1.3c2.4,0.3,4.8,0.5,7.2,0.7c4.8,0.4,9.7,0.6,14.5,0.8
		c9.7,0.5,19.4,0.8,29,1.2s19.4,0.8,29.1,1.4c2.4,0.2,4.8,0.4,7.3,0.6c2.4,0.2,4.9,0.5,7.2,1c0.6,0.1,1.2,0.3,1.8,0.6
		c0.6,0.2,1.2,0.6,1.7,1.1c0.1,0.2,0.3,0.4,0.3,0.6c0.1,0.2,0.1,0.5,0,0.7c-0.1,0.4-0.4,0.7-0.7,0.9c-0.5,0.4-1.1,0.7-1.6,1
		c-2.2,1-4.5,1.9-6.8,2.7c-2.3,0.8-4.5,1.7-6.7,2.7c-1.1,0.5-2.1,1.1-3.1,1.7c-1,0.6-1.7,1.4-2.2,2.4c-0.1,0.2-0.1,0.5-0.1,0.7
		c0,0.1,0,0.2,0,0.4c0,0.1,0.1,0.2,0.1,0.3c0.3,0.4,0.7,0.8,1.2,1c1.1,0.5,2.2,0.9,3.3,1.2c2.3,0.6,4.7,1.1,7.1,1.5
		c9.5,1.5,19.2,2.3,28.8,3.2s19.3,1.6,29,2.8c2.4,0.3,4.8,0.6,7.2,1.1c1.2,0.2,2.4,0.5,3.6,0.8c0.6,0.2,1.2,0.3,1.8,0.6
		c0.6,0.2,1.1,0.5,1.6,1c0.9,0.9,1.5,2,1.8,3.1c0.3,1.2,0.3,2.4,0.1,3.6c-0.5,2.4-1.5,4.6-2.9,6.6c1.4-2,2.4-4.2,2.8-6.6
		c0.2-1.2,0.1-2.4-0.2-3.6c-0.3-1.1-1-2.2-1.8-3c-0.4-0.4-0.9-0.7-1.5-0.9c-0.6-0.2-1.1-0.4-1.7-0.5c-1.2-0.3-2.4-0.5-3.5-0.7
		c-2.4-0.4-4.8-0.7-7.2-1c-9.6-1.1-19.3-1.8-29-2.5s-19.3-1.6-28.9-3.1c-2.4-0.4-4.8-0.9-7.2-1.5c-1.2-0.3-2.4-0.7-3.5-1.3
		c-0.6-0.3-1.2-0.7-1.6-1.3c-0.1-0.2-0.2-0.4-0.2-0.6c0-0.2-0.1-0.4-0.1-0.5c0-0.4,0-0.7,0.2-1.1c0.5-1.2,1.4-2.2,2.6-2.9
		c1-0.7,2.1-1.3,3.2-1.8c2.2-1,4.5-1.9,6.8-2.7s4.6-1.6,6.7-2.7c0.5-0.2,1-0.5,1.4-0.9c0.2-0.1,0.3-0.3,0.4-0.5c0-0.1,0-0.2-0.1-0.4
		c-0.4-0.4-0.9-0.6-1.3-0.8c-0.5-0.2-1.1-0.4-1.7-0.5c-2.4-0.5-4.7-0.8-7.1-1.1c-2.4-0.2-4.8-0.4-7.2-0.6c-9.7-0.7-19.3-1.1-29-1.5
		s-19.4-0.9-29-1.5c-4.8-0.3-9.7-0.6-14.5-1.1c-2.4-0.2-4.8-0.5-7.2-0.8C488.2,299.5,485.8,299,483.5,298.3z"/>
	<path class="st2" d="M550.6,292.3c9.7,0.2,19.4,0.7,29,1.4c4.8,0.4,9.7,0.9,14.5,1.5c4.8,0.6,9.6,1.5,14.3,2.9
		c1.2,0.4,2.3,0.9,3.4,1.6c0.3,0.2,0.5,0.4,0.8,0.7c0.1,0.1,0.2,0.3,0.3,0.5l0.2,0.5c0.3,0.6,0.4,1.3,0.4,2
		c-0.2,1.3-0.9,2.5-1.9,3.4c-0.9,0.8-1.9,1.6-3,2.2c-1,0.6-2.1,1.2-3.2,1.8c-0.5,0.3-1,0.6-1.5,0.9c-0.5,0.3-0.9,0.6-1.2,1.1
		c-0.1,0.1-0.2,0.3-0.1,0.5c0.1,0.2,0.2,0.4,0.4,0.5c0.5,0.3,1,0.5,1.5,0.6c1.2,0.3,2.3,0.6,3.5,0.8c4.8,0.8,9.6,1.1,14.4,1.4
		s9.7,0.5,14.5,0.7c-9.7,0.1-19.4-0.3-29-1.4c-1.2-0.2-2.4-0.4-3.6-0.7c-0.6-0.2-1.2-0.4-1.8-0.7c-0.3-0.2-0.6-0.5-0.8-0.9
		c-0.1-0.4-0.1-0.9,0.2-1.2c0.4-0.5,0.9-1,1.5-1.3c0.5-0.4,1-0.7,1.6-1c1.1-0.6,2.1-1.2,3.1-1.8c1-0.6,2-1.3,2.9-2.1
		c0.9-0.7,1.4-1.7,1.6-2.8c0-0.5-0.1-1.1-0.3-1.5c0-0.1-0.1-0.2-0.2-0.4c-0.1-0.1-0.1-0.2-0.2-0.3c-0.2-0.2-0.4-0.4-0.6-0.5
		c-1-0.6-2-1.1-3.2-1.5c-4.6-1.4-9.3-2.3-14.1-2.9c-4.8-0.7-9.6-1.2-14.4-1.7s-9.6-0.9-14.5-1.2S555.4,292.6,550.6,292.3z"/>
</g>
<g id="freepik--Floor--inject-18">
	<polygon class="st5" points="52.2,263.3 132.9,263.1 213.6,263 375,262.8 536.4,263 617.1,263.1 697.8,263.3 617.1,263.6 
		536.4,263.7 375,263.8 213.6,263.7 132.9,263.6 	"/>
</g>
<g id="freepik--Birds--inject-18">
	<path class="st5" d="M412.4,193.7c-0.6-0.8-1.3-1.6-2-2.4c-0.7-0.8-1.6-1.4-2.5-2c-0.3-0.2-0.6-0.3-0.9-0.4c-0.1,0-0.2,0-0.3,0
		h-0.2l-0.4,0.1c-0.5,0.1-1,0.3-1.5,0.5c-1,0.4-1.9,0.9-2.8,1.3l0.8,0.1c-0.8-0.7-1.7-1.4-2.6-2c-0.5-0.3-0.9-0.6-1.4-0.8
		c-0.3-0.1-0.5-0.2-0.8-0.3c-0.2-0.1-0.3-0.1-0.5-0.1c-0.2,0-0.3,0-0.5,0c-0.6,0.1-1.1,0.3-1.7,0.5c-0.5,0.2-1,0.5-1.4,0.8
		c-0.9,0.6-1.8,1.2-2.6,1.9c1-0.4,1.9-0.9,2.9-1.3c0.5-0.2,1-0.4,1.5-0.5c0.4-0.2,0.9-0.3,1.4-0.3c0.4,0.1,0.8,0.2,1.2,0.4
		c0.4,0.2,0.9,0.5,1.2,0.8c0.8,0.6,1.6,1.3,2.4,1.9l0.4,0.3l0.4-0.2c0.9-0.5,1.8-0.9,2.7-1.4c0.4-0.2,0.9-0.4,1.4-0.6l0.3-0.1h0.1
		h0.1c0.2,0,0.4,0.1,0.5,0.1c0.9,0.4,1.7,1,2.5,1.6C410.8,192.5,411.6,193.1,412.4,193.7z"/>
	<path class="st5" d="M388.8,202.8c-0.5-0.7-1.1-1.3-1.7-1.9c-0.6-0.6-1.3-1.2-2.1-1.7c-0.2-0.1-0.5-0.2-0.8-0.3c-0.1,0-0.2,0-0.3,0
		h-0.2l-0.4,0.1c-0.4,0.1-0.8,0.3-1.3,0.4c-0.8,0.3-1.6,0.7-2.4,1.1l0.7,0.1c-0.7-0.6-1.4-1.2-2.1-1.7c-0.4-0.3-0.8-0.5-1.2-0.7
		c-0.2-0.1-0.4-0.2-0.7-0.3c-0.1,0-0.3-0.1-0.4-0.1c-0.1,0-0.3,0-0.4,0c-0.5,0.1-0.9,0.2-1.4,0.4c-0.4,0.2-0.8,0.4-1.2,0.6
		c-0.8,0.5-1.5,1-2.1,1.6c0.8-0.4,1.6-0.7,2.4-1.1c0.4-0.2,0.8-0.3,1.2-0.4c0.4-0.1,0.8-0.2,1.1-0.2c0.4,0,0.7,0.2,1,0.4
		c0.3,0.2,0.7,0.4,1,0.7c0.7,0.5,1.4,1.1,2,1.6l0.3,0.3l0.4-0.2c0.7-0.4,1.5-0.8,2.2-1.1c0.4-0.2,0.8-0.3,1.1-0.5
		c0.1,0,0.2-0.1,0.3-0.1h0.1h0c0.2,0,0.3,0.1,0.4,0.1c0.7,0.4,1.4,0.8,2.1,1.3C387.4,201.8,388.1,202.3,388.8,202.8z"/>
	<path class="st5" d="M424.3,146.7c-0.8-0.4-1.6-0.7-2.4-1c-0.8-0.3-1.7-0.5-2.6-0.6c-0.3,0-0.5,0-0.8,0.1c-0.1,0-0.2,0.1-0.2,0.1
		l-0.1,0.1c-0.1,0.1-0.2,0.1-0.3,0.2c-0.3,0.3-0.6,0.6-0.9,0.9c-0.6,0.6-1.1,1.3-1.6,2l0.6-0.2c-0.9-0.2-1.7-0.4-2.6-0.6
		c-0.5-0.1-0.9-0.1-1.4-0.1c-0.2,0-0.5,0-0.7,0.1c-0.1,0-0.3,0.1-0.4,0.1c-0.1,0-0.3,0.1-0.4,0.2c-0.4,0.3-0.8,0.6-1,1
		c-0.3,0.4-0.5,0.7-0.8,1.1c-0.5,0.8-0.9,1.5-1.2,2.4c0.6-0.7,1.1-1.4,1.7-2c0.3-0.3,0.6-0.6,0.9-0.9c0.3-0.3,0.6-0.5,0.9-0.7
		c0.3-0.1,0.7-0.1,1-0.1c0.4,0,0.8,0.1,1.2,0.2c0.8,0.1,1.7,0.4,2.5,0.6l0.4,0.1l0.2-0.3c0.5-0.7,1-1.4,1.5-2
		c0.2-0.3,0.5-0.6,0.8-0.9c0.1-0.1,0.1-0.1,0.2-0.2l0.1-0.1l0,0c0.1-0.1,0.3-0.1,0.5-0.1c0.8,0,1.6,0.1,2.4,0.2
		C422.7,146.4,423.5,146.6,424.3,146.7z"/>
	<path class="st5" d="M393.7,185c-1-0.8-2.1-1.5-3.2-2.2c-1.1-0.7-2.4-1.3-3.6-1.6c-0.4-0.1-0.8-0.1-1.2-0.1c-0.1,0-0.3,0.1-0.4,0.1
		l-0.3,0.1c-0.2,0.1-0.3,0.2-0.5,0.3c-0.6,0.3-1.1,0.7-1.7,1.1c-1,0.8-2,1.6-3,2.5l1-0.1c-1.2-0.6-2.4-1.1-3.7-1.6
		c-0.7-0.2-1.3-0.4-2-0.5c-0.4-0.1-0.7-0.1-1.1-0.1c-0.2,0-0.4,0-0.6,0c-0.2,0-0.4,0.1-0.6,0.2c-0.7,0.3-1.3,0.7-1.8,1.2
		c-0.5,0.4-1,0.9-1.5,1.4c-0.9,1-1.7,2-2.5,3.1c1-0.8,2-1.7,3.1-2.4c0.5-0.4,1-0.8,1.6-1.1c0.5-0.3,1-0.6,1.6-0.8
		c0.5-0.1,1.1,0,1.5,0.2c0.6,0.2,1.2,0.4,1.8,0.6c1.2,0.5,2.4,1,3.5,1.6l0.6,0.3l0.4-0.4c0.9-0.9,1.9-1.7,2.8-2.5
		c0.5-0.4,0.9-0.8,1.4-1.1l0.4-0.2l0.2-0.1c0,0,0,0,0.1,0c0.2,0,0.5,0,0.7,0c1.2,0.2,2.4,0.6,3.5,1.1
		C391.3,184.1,392.5,184.6,393.7,185z"/>
	<path class="st5" d="M229.3,232.7c-0.7-0.5-1.4-1-2.2-1.4c-0.8-0.4-1.6-0.8-2.5-1c-0.3,0-0.5,0-0.8,0c-0.1,0-0.2,0-0.3,0.1
		l-0.2,0.1l-0.3,0.2c-0.4,0.2-0.7,0.5-1.1,0.8c-0.7,0.6-1.3,1.1-1.9,1.7l0.7-0.1c-0.8-0.4-1.7-0.7-2.5-1c-0.4-0.1-0.9-0.2-1.3-0.3
		c-0.2,0-0.5-0.1-0.7-0.1c-0.1,0-0.3,0-0.4,0c-0.1,0-0.3,0.1-0.4,0.1c-0.4,0.2-0.8,0.5-1.2,0.8c-0.4,0.3-0.7,0.6-1,1
		c-0.6,0.7-1.1,1.4-1.6,2.1c0.7-0.6,1.3-1.2,2-1.7c0.3-0.3,0.7-0.5,1-0.8c0.3-0.2,0.6-0.4,1-0.6c0.3-0.1,0.7,0,1,0.1
		c0.4,0.1,0.8,0.2,1.2,0.4c0.8,0.3,1.6,0.6,2.4,1l0.4,0.2l0.3-0.3c0.6-0.6,1.2-1.2,1.8-1.7c0.3-0.3,0.6-0.5,0.9-0.8
		c0.1-0.1,0.1-0.1,0.2-0.2l0.1-0.1c0,0,0,0,0.1,0c0.2,0,0.3,0,0.5,0c0.8,0.1,1.6,0.4,2.4,0.6C227.7,232.1,228.5,232.4,229.3,232.7z"
		/>
	<path class="st5" d="M250.5,229.2c-0.7-1.1-1.5-2.1-2.4-3c-0.9-1-1.9-1.9-3-2.6c-0.3-0.2-0.7-0.4-1.1-0.5c-0.1,0-0.3,0-0.4,0h-0.3
		l-0.5,0.1c-0.7,0.2-1.3,0.4-1.9,0.6c-1.2,0.4-2.4,1-3.6,1.5l1,0.2c-1-0.9-2-1.8-3.1-2.6c-0.6-0.4-1.1-0.8-1.7-1.1
		c-0.3-0.2-0.7-0.3-1-0.5c-0.2-0.1-0.4-0.1-0.6-0.1c-0.2,0-0.4,0-0.6,0c-0.7,0.1-1.4,0.3-2.1,0.6c-0.6,0.3-1.2,0.6-1.8,0.9
		c-1.2,0.6-2.3,1.4-3.3,2.2c1.2-0.5,2.4-1,3.7-1.4c0.6-0.2,1.2-0.4,1.8-0.6c0.6-0.2,1.1-0.3,1.7-0.3c0.5,0.1,1,0.3,1.4,0.6
		c0.5,0.3,1,0.7,1.5,1.1c1,0.8,1.9,1.7,2.9,2.5l0.5,0.4l0.6-0.3c1.1-0.6,2.3-1.1,3.4-1.6c0.6-0.2,1.1-0.5,1.7-0.6l0.4-0.1h0.2
		c0,0,0,0,0.1,0c0.2,0,0.5,0.1,0.7,0.2c1.1,0.6,2.1,1.3,3,2.1C248.5,227.6,249.5,228.4,250.5,229.2z"/>
	<path class="st5" d="M445.2,165.7c-0.7-1.1-1.5-2.1-2.4-3c-0.9-1-1.9-1.9-3-2.6c-0.3-0.2-0.7-0.4-1.1-0.5c-0.1,0-0.3,0-0.4,0H438
		c-0.2,0-0.4,0.1-0.5,0.1c-0.7,0.2-1.3,0.3-1.9,0.6c-1.2,0.4-2.4,1-3.6,1.5l1,0.2c-1-0.9-2-1.8-3.1-2.6c-0.6-0.4-1.1-0.8-1.8-1.1
		c-0.3-0.2-0.7-0.3-1-0.4c-0.2-0.1-0.4-0.1-0.6-0.2c-0.2,0-0.4,0-0.7,0c-0.7,0.1-1.4,0.3-2.1,0.6c-0.6,0.3-1.2,0.6-1.8,0.9
		c-1.2,0.7-2.3,1.4-3.3,2.2c1.2-0.5,2.4-1,3.7-1.4c0.6-0.2,1.2-0.4,1.8-0.6c0.6-0.2,1.1-0.3,1.7-0.3c0.5,0.1,1,0.3,1.4,0.6
		c0.5,0.3,1,0.7,1.5,1.1c1,0.8,2,1.7,2.9,2.5l0.5,0.4l0.5-0.3c1.1-0.6,2.3-1.1,3.4-1.6c0.6-0.2,1.1-0.5,1.7-0.6l0.4-0.1h0.2h0.1
		c0.2,0,0.5,0.1,0.7,0.2c1.1,0.6,2.1,1.3,3,2.1C443.2,164.1,444.2,164.9,445.2,165.7z"/>
</g>
<g id="freepik--Trees--inject-18">
	<path class="st6" d="M589.4,175.2c0,0,4.2,61.8,29,141.8c14.3,46.2,44.4,94.1,69.5,130.4h-41.8c0,0-36-89.3-44-129.4
		C584.3,228.6,586.2,174,586.2,174L589.4,175.2z"/>
	<path class="st7" d="M589.4,175.2c0,0,4.2,61.8,29,141.8c14.3,46.2,44.4,94.1,69.5,130.4h-41.8c0,0-36-89.3-44-129.4
		C584.3,228.6,586.2,174,586.2,174L589.4,175.2z"/>
	<path class="st6" d="M645.8,391.3c-3.4,0.2-6.8,0.3-10.3,0.4s-6.8,0.1-10.3,0.1h-0.3l-0.4-1h0.7c3.4,0,6.8,0,10.3,0.1
		S642.3,391.1,645.8,391.3z"/>
	<path class="st6" d="M661.1,406.5c-3.3,0-6.5,0-9.8-0.1l-5.1-0.1c-1.7-0.1-3.4-0.1-5.1-0.2c1.7-0.1,3.4-0.2,5.1-0.2l5.1-0.1
		c3.1-0.1,6.1-0.1,9.2-0.1L661.1,406.5z"/>
	<path class="st6" d="M677.5,432.1h-0.3c-3.4,0.1-6.8,0.1-10.3,0.1s-6.8,0-10.3-0.1l-5.1-0.1c-1.7-0.1-3.4-0.1-5.1-0.2
		c1.7-0.1,3.4-0.2,5.1-0.2l5.1-0.1c3.4-0.1,6.8-0.1,10.3-0.1s6.7,0,10,0.1C677.1,431.6,677.3,431.8,677.5,432.1z"/>
	<path class="st6" d="M657,399.7h-0.4l-5.1-0.1c-1.7-0.1-3.4-0.1-5.1-0.2c1.7-0.1,3.4-0.2,5.1-0.2l5.1-0.1
		C656.7,399.2,656.9,399.5,657,399.7z"/>
	<path class="st6" d="M634.8,358.3c-1.5-0.1-3.1-0.1-4.6-0.2c1.5-0.1,2.9-0.1,4.4-0.2L634.8,358.3z"/>
	<path class="st6" d="M626.9,352.3c-3.4,0.2-6.8,0.3-10.3,0.4c-1.7,0-3.4,0.1-5.1,0.1l-0.3-1c1.8,0,3.6,0,5.4,0.1
		C620.1,352,623.5,352.1,626.9,352.3z"/>
	<path class="st6" d="M609.1,310.9c-2.8,0.2-5.6,0.3-8.4,0.3c0-0.2-0.1-0.5-0.1-0.7C603.5,310.6,606.3,310.7,609.1,310.9z"/>
	<path class="st6" d="M608.2,281c-1.5-0.1-3-0.1-4.6-0.2c1.5-0.1,3-0.1,4.5-0.2C608.1,280.7,608.2,280.9,608.2,281z"/>
	<path class="st6" d="M614.4,316.6c-3.4,0.2-6.8,0.3-10.3,0.4h-2.3c-0.1-0.3-0.1-0.6-0.2-0.9l2.4,0.1
		C607.6,316.3,611,316.4,614.4,316.6z"/>
	<path class="st6" d="M595.4,234.2c-2,0.1-4,0.2-6,0.3c0-0.2,0-0.4,0-0.5C591.4,234,593.4,234.1,595.4,234.2z"/>
	<path class="st6" d="M593.9,238.5c-1.3,0.1-2.7,0.1-4,0.2c0-0.1,0-0.3,0-0.4C591.2,238.3,592.5,238.4,593.9,238.5z"/>
	<path class="st8" d="M628.8,105.6l-15,1.2l15.2,4.5c-0.1,6.7-1.4,13.3-3.7,19.5l-15.9-1.7l13.3,7.6c-1.1,2.1-2.3,4.2-3.6,6.2
		l-9.5-1.4l6.8,5.3c-2.8,3.7-5.9,7.2-9.2,10.4l-9-5.2l6.6,7.4c-6.7,5.9-14.1,11.1-21.9,15.4l24.9-118.5c5.4,6.5,10,13.8,13.5,21.5
		l-6.1,1.9l7.5,1.3c1,2.5,2,5.1,2.9,7.9L610.7,92l16.7,3.5C628.1,98.8,628.6,102.2,628.8,105.6z"/>
	<path class="st9" d="M666.4,150l-7.3-4.6l5.6,7.8c-2,3.4-4.5,6.5-7.3,9.2l-9.9-9.6l5,13.8c-1.9,1.4-3.8,2.6-5.8,3.7l-6.8-7.1
		l2.6,9.1c-3.7,1.6-7.5,2.7-11.4,3.6l-6.9-13.9l0.7,15c-2,0.3-4.1,0.5-6.4,0.6l-3.1-9.6l-2.4,9.8c-10,0-19.9-1.1-29.7-3.1l88.8-46.4
		C671.8,135.9,669.9,143.3,666.4,150z"/>
	<path class="st9" d="M583.3,174.8c-10.9-5.9-21.1-12.9-30.5-20.9l8.2-9.4l-11.8,6.2c-2.9-2.7-5.7-5.6-8.3-8.6l8.2-10.3l-12.1,5.5
		c-2-2.6-3.8-5.1-5.4-7.7l16-12.5l-21,3.4c-2.9-5.9-5-12.2-6.4-18.6l0,0l21.9-13l-23.4,3.6c-0.2-1.7-0.3-3.4-0.4-5.1l12.9-3.7l-13-1
		c0.1-4.1,0.4-8.2,1-12.3l19.5-2.1L520.3,64c2.4-11.3,6.7-22.2,12.7-32.1L583.3,174.8z"/>
	<path class="st8" d="M545.4,172.8l0.6-11.4l-5.6,10.6l0,0c-1.8-0.4-3.7-0.7-5.6-1.2l1.9-8.4l-4.9,7.7c-3-0.8-6.1-1.6-9.1-2.6
		l3.7-10.5l-8.9,8.7c-5.7-2.1-11.1-4.9-16.2-8.1l9.6-15.2L496.5,154c-3.9-3-7.4-6.5-10.4-10.3l10.2-12.8l-13.4,8.3
		c-1.4-2.2-2.6-4.5-3.7-6.9l16.7-15l-20,5.2c-0.8-3.5-1.3-7-1.6-10.5l13.8-5.4l-14,0.3c0-8.2,1.1-16.3,3.1-24.2
		c0,0,45.1,71.3,106,92.2C570.6,175.5,557.9,174.8,545.4,172.8z"/>
	<path class="st9" d="M560.7,192.2l-3.9-4.1l2.5,4.8c-1.3,0.6-2.7,1.2-4,1.7l-3.7-5.9l0.3,7.1c-1.9,0.6-3.9,1-5.9,1.4l-2.6-11
		l-2,11.4c-4.3,0.3-8.5-0.1-12.7-1.1l-0.9-8.7l-2.2,7.9c-1.7-0.5-3.4-1.1-5-1.8l2.4-10.4l-6,8.8c-2.9-1.5-5.6-3.2-8.2-5.1l3-6.8
		l-4.8,5.4c-0.9-0.7-1.8-1.4-2.7-2.2l2.2-3.9l-3.8,2.5c-3.9-3.5-7.4-7.4-10.5-11.6c34.6,17.1,91.2,4.1,91.2,4.1
		C575.5,182.9,567.9,188.6,560.7,192.2z"/>
	<path class="st8" d="M642.6,198.5l-2.9-4l1,4.9c-1.7,0.7-3.5,1.3-5.4,1.7l-2.1-7.9l-0.7,8.5c-2.8,0.5-5.7,0.7-8.6,0.5l-1.3-8
		l-2.9,7.6c-1.9-0.3-3.9-0.8-5.7-1.4l1.3-6.9l-3.6,6c-1.5-0.6-3-1.3-4.4-2l2.1-8.4l-6.8,5.8c-1.4-0.9-2.9-1.9-4.4-3l2.7-4.4
		l-4.4,3.1c-5.6-4.6-10.6-9.8-15-15.5c0,0,43.6,18.1,74.3,14.2C652.1,193.1,647.6,196.2,642.6,198.5z"/>
	<path class="st8" d="M583,198.2l-5.1-1.8l4.4,3.9c-0.6,1.4-1.3,2.8-2.1,4.1l-4.2-1.4l3.2,2.7c-0.4,0.6-0.9,1.1-1.3,1.6l-5.5-3.3
		l3.6,5.1c-1.7,1.4-3.5,2.6-5.5,3.4l-3.7-3.2l1.7,4c-1,0.3-1.9,0.6-2.8,0.8l-2.5-3.6l0.9,4c-3.1,0.6-6.3,0.7-9.5,0.4
		c19.7-13,28.8-40.5,28.8-40.5C585.1,184.8,584.7,192.4,583,198.2z"/>
	<circle class="st6" cx="586.6" cy="189.3" r="13.5"/>
	<circle class="st10" cx="586.6" cy="189.3" r="13.5"/>
	<path class="st6" d="M590.9,178c-1.5,7.3-8.7,12-16,10.5c-7.3-1.5-12-8.7-10.5-16c1.5-7.3,8.7-12,16-10.5c0,0,0,0,0,0
		C587.7,163.5,592.4,170.7,590.9,178z"/>
	<path class="st7" d="M590.9,178c-1.5,7.3-8.7,12-16,10.5c-7.3-1.5-12-8.7-10.5-16c1.5-7.3,8.7-12,16-10.5c0,0,0,0,0,0
		C587.7,163.5,592.4,170.7,590.9,178z"/>
	<path class="st6" d="M604.6,178.4c-1.5,7.3-8.7,12-16,10.4c-7.3-1.5-12-8.7-10.4-16c1.5-7.3,8.7-12,16-10.4c0,0,0,0,0,0
		C601.5,163.9,606.1,171.1,604.6,178.4z"/>
	<path class="st11" d="M604.6,178.4c-1.5,7.3-8.7,12-16,10.4c-7.3-1.5-12-8.7-10.4-16c1.5-7.3,8.7-12,16-10.4c0,0,0,0,0,0
		C601.5,163.9,606.1,171.1,604.6,178.4z"/>
	<path class="st6" d="M154.2,167.7c0,0,0.8,73.6-23.6,152.4c-14.1,45.5-43.7,92.6-68.4,128.4h41.1c0,0,35.5-87.9,43.3-127.4
		c17.5-88.1,10.7-154.7,10.7-154.7L154.2,167.7z"/>
	<path class="st7" d="M154.2,167.7c0,0,0.8,73.6-23.6,152.4c-14.1,45.5-43.7,92.6-68.4,128.4h41.1c0,0,35.5-87.9,43.3-127.4
		c17.5-88.1,10.7-154.7,10.7-154.7L154.2,167.7z"/>
	<path class="st6" d="M114,421.1c-0.1,0.3-0.2,0.6-0.4,1c-2,0-4,0-6-0.1c-3.4-0.1-6.8-0.2-10.3-0.4c3.4-0.2,6.8-0.3,10.3-0.4
		C109.7,421.2,111.8,421.1,114,421.1z"/>
	<path class="st6" d="M110.3,406c-1.7,0.1-3.4,0.2-5.1,0.2l-5.1,0.1c-3.4,0.1-6.8,0.1-10.3,0.1h-0.3c0.2-0.3,0.4-0.7,0.6-1
		c3.3,0,6.6,0,9.9,0.1l5.1,0.1C106.9,405.8,108.6,405.9,110.3,406z"/>
	<path class="st6" d="M105,399.3c-1.7,0.1-3.4,0.2-5.1,0.2l-5.1,0.1h-1.2l0.5-0.8h0.7l5.1,0.1C101.6,399.2,103.3,399.2,105,399.3z"
		/>
	<path class="st6" d="M135.5,360.9l-0.2,0.6c-2.3-0.1-4.5-0.1-6.8-0.3C130.8,361.1,133.1,361,135.5,360.9z"/>
	<path class="st6" d="M138.4,351.8c-0.1,0.3-0.2,0.6-0.3,0.9c-1.1,0-2.2,0-3.4-0.1c-3.4-0.1-6.8-0.2-10.3-0.4
		c3.4-0.2,6.8-0.3,10.3-0.4L138.4,351.8z"/>
	<path class="st6" d="M148.6,310.6c0,0.2-0.1,0.4-0.1,0.5c-2.1-0.1-4.1-0.1-6.2-0.3C144.4,310.7,146.5,310.6,148.6,310.6z"/>
	<path class="st6" d="M152.9,270.2c-1.7,0.1-3.4,0.2-5.1,0.2l-4.7,0.1l0.1-0.7l4.6,0.1C149.5,270.1,151.2,270.1,152.9,270.2z"/>
	<path class="st6" d="M157.6,233.6c0,0.1,0,0.2,0,0.3c-1,0-2-0.1-3.1-0.2C155.6,233.6,156.6,233.6,157.6,233.6z"/>
	<path class="st6" d="M149,265.3c-1.6,0.1-3.3,0.2-4.9,0.2l0.1-0.5C145.8,265.1,147.4,265.2,149,265.3z"/>
	<path class="st9" d="M102.6,120.6l12.3-3l-10.9,7.6c1.8,5.3,4.6,10.3,8.1,14.7l12.3-5.5l-8.7,9.6c1.4,1.4,2.9,2.8,4.5,4l7.2-3.6
		l-4.1,6c3.2,2.2,6.6,4.2,10.1,5.9l5.9-6.5l-3.3,7.7c6.9,3,14.1,5.2,21.5,6.7l-50.8-88.3c-2.6,6.6-4.4,13.6-5.2,20.7l5.4-0.1l-5.7,3
		c-0.2,2.2-0.3,4.6-0.2,7l12.8-1.3l-12.4,7.2C101.4,115,101.9,117.8,102.6,120.6z"/>
	<path class="st8" d="M84.1,165.9l4.7-5.6l-2.4,7.7c2.5,2.2,5.3,4,8.2,5.5l5.5-10.3l-0.4,12.3c1.8,0.6,3.7,1.1,5.7,1.4l3.6-7.4
		l0.3,8c3.4,0.3,6.7,0.3,10.1-0.1l1.9-12.9l3.3,12.2c1.7-0.3,3.4-0.7,5.2-1.2V167l4.5,7.2c8-2.6,15.7-6,23-10.2L74,150.1
		C76.2,156,79.6,161.4,84.1,165.9z"/>
	<path class="st8" d="M157.1,164.1c7.2-7.5,13.5-15.8,18.9-24.7l-9.1-5.4l11.1,1.9c1.6-2.9,3.1-5.9,4.4-9l-9.2-6.1l11.1,1.2
		c0.9-2.6,1.7-5.1,2.3-7.6l-16-5.8l17.7-2.8c0.7-5.5,0.8-11,0.3-16.5l0,0l-20.9-4.8l19.6-3.2c-0.3-1.4-0.6-2.8-1-4.2L175,77.7
		l10.1-4.2c-1.1-3.3-2.5-6.5-4-9.6L165,67.3l13.5-8.3c-4.9-8.4-11.1-16-18.5-22.3L157.1,164.1z"/>
	<path class="st9" d="M186.9,152.6l-3.4-9l7.2,7l0,0c1.4-0.8,2.8-1.6,4.2-2.4l-3.7-6.2l5.9,4.9c2.2-1.4,4.4-2.9,6.6-4.5l-5.7-7.4
		l9.4,4.6c4-3.2,7.6-6.8,10.8-10.7l-11.6-9.6l14.7,5.5c2.3-3.4,4.2-7.1,5.6-10.9l-11.5-7.6l12.9,3.2c0.5-2.1,0.9-4.3,1.1-6.5
		l-17.3-7.7l17.3-1c-0.3-3-0.7-5.9-1.5-8.8l-12.4-0.8l11.2-3.4c-2.2-6.5-5.1-12.7-8.8-18.5c0,0-17.5,68.8-60.8,101.4
		C167.4,161.3,177.4,157.5,186.9,152.6z"/>
	<path class="st8" d="M179.7,172.1l2.1-4.3l-0.8,4.5c1.2,0.2,2.5,0.3,3.7,0.3l1.4-5.7l1.6,5.7c1.7,0,3.3-0.2,5-0.4l-0.8-9.4l4.6,8.6
		c3.5-0.9,6.8-2.3,9.9-4.2l-1.5-7.2l3.8,5.7c1.2-0.8,2.4-1.8,3.5-2.7l-4.6-7.7l7.1,5.4c1.9-1.9,3.7-4,5.2-6.2l-4.1-4.7l5.2,3.1
		c0.6-0.8,1.1-1.6,1.6-2.4l-2.8-2.6l3.7,1c2.2-3.8,4-7.8,5.4-12c-23.2,22.7-71.9,27.1-71.9,27.1
		C165.4,168.6,172.9,171.1,179.7,172.1z"/>
	<path class="st9" d="M115.8,198.5l1.2-4l0.5,4.1c1.6,0.1,3.2,0.1,4.8,0l-0.4-6.9l2.7,6.6c2.4-0.3,4.7-0.9,7-1.8l-1.1-6.8l4.3,5.3
		c1.5-0.8,2.9-1.6,4.2-2.6l-2.8-5.1l4.5,3.9c1-0.8,2-1.7,3-2.7l-3.9-6.2l6.9,2.9c0.9-1.1,1.8-2.3,2.7-3.6l-3.3-2.8l4.3,1.3
		c3.2-5.1,5.9-10.6,7.9-16.3c0,0-30.1,25.9-55.7,30.8C106.8,196.7,111.2,198,115.8,198.5z"/>
	<path class="st9" d="M169.9,191.4l4.5-4.4l-2.6,6.3c1.3,1.2,2.7,2.3,4.3,3.3l3.8-3.5l-2,4.5c0.7,0.4,1.5,0.7,2.3,1.1l4.2-6.2
		l-1.2,7.2c2.5,0.6,5,0.9,7.5,0.8l2.3-5.2l0.3,5.1c1.2-0.1,2.3-0.3,3.4-0.5l0.8-5.1l1.1,4.6c3.6-1,7.1-2.4,10.2-4.4
		c-27.3-3.7-50.8-28.1-50.8-28.1C160.9,178.4,165.2,186.3,169.9,191.4z"/>
	<path class="st6" d="M145.4,183.4c1.2,5.5,6.6,9,12.1,7.9s9-6.6,7.9-12.1c-1.2-5.5-6.6-9-12.1-7.9
		C147.7,172.4,144.2,177.9,145.4,183.4C145.4,183.4,145.4,183.4,145.4,183.4z"/>
	<path class="st10" d="M145.4,183.4c1.2,5.5,6.6,9,12.1,7.9s9-6.6,7.9-12.1c-1.2-5.5-6.6-9-12.1-7.9
		C147.7,172.4,144.2,177.9,145.4,183.4C145.4,183.4,145.4,183.4,145.4,183.4z"/>
	<path class="st6" d="M152.1,172.7c1.2,5.5,6.6,9.1,12.1,7.9c5.5-1.2,9.1-6.6,7.9-12.1c-1.2-5.5-6.6-9.1-12.1-7.9c0,0,0,0,0,0
		C154.5,161.7,151,167.2,152.1,172.7z"/>
	<path class="st7" d="M152.1,172.7c1.2,5.5,6.6,9.1,12.1,7.9c5.5-1.2,9.1-6.6,7.9-12.1c-1.2-5.5-6.6-9.1-12.1-7.9c0,0,0,0,0,0
		C154.5,161.7,151,167.2,152.1,172.7z"/>
	<path class="st6" d="M141.8,173c1.2,5.5,6.6,9.1,12.1,7.9s9.1-6.6,7.9-12.1c-1.2-5.5-6.6-9.1-12.1-7.9c0,0,0,0,0,0
		C144.1,162.1,140.6,167.5,141.8,173z"/>
	<path class="st11" d="M141.8,173c1.2,5.5,6.6,9.1,12.1,7.9s9.1-6.6,7.9-12.1c-1.2-5.5-6.6-9.1-12.1-7.9c0,0,0,0,0,0
		C144.1,162.1,140.6,167.5,141.8,173z"/>
</g>
<g id="freepik--Plants--inject-18">
	<path class="st5" d="M610.9,428.7c-2.5,0.1-5.3,0.2-7.5-1.4c-1.9-1.5-3.7-3.8-3.4-6.4c0.1-0.7,0.2-1.2,1-0.9c1.2,0.5,2.1,1.8,3,2.8
		c1.1,1.2,2.2,2.3,3.5,3.3c0.9,0.7,1.9,1.3,2.8,2l0.3,0.3l0.1,0.1h0.1c0,0,0.1,0,0.1,0l0,0C611,428.6,611,428.7,610.9,428.7
		C610.9,428.7,610.9,428.7,610.9,428.7z"/>
	<path class="st2" d="M611,428.5c-2.2,0-4.6,0.1-6.4-1.4c-0.8-0.7-1.5-1.6-2.1-2.5c-0.2-0.4-1-1.7-0.7-2.2c0.6-0.9,3.2,2.8,3.6,3.1
		c1.4,1.3,3.1,2.1,4.9,2.5l0.3,0.3c-1.3-0.3-2.5-0.8-3.7-1.4c-1.6-0.9-2.5-2.3-3.7-3.6c-0.3-0.3-1.1-1.2-1.4-0.6
		c-0.2,0.4,0.5,1.6,0.7,1.9c0.5,0.9,1.2,1.7,2,2.4C606.4,428.4,608.8,428.4,611,428.5L611,428.5z"/>
	<path class="st5" d="M612.3,430.2l-0.1,0.3l0,0c0,0,0,0,0,0c0,0-0.1,0-0.1,0c0,0,0,0,0-0.1l0,0v-0.1l0,0l0,0
		c-0.5-1.7-0.6-3.4-1.1-5.1s-1-3.2-1.3-4.8c-0.2-1-0.9-6.2,1.4-5.5c1,0.3,1.7,1.7,2.1,2.6c0.5,1.2,0.8,2.4,0.8,3.7
		C614.1,424.4,612.9,427.2,612.3,430.2z"/>
	<path class="st2" d="M613,423.8c0-1.2-0.1-2.4-0.4-3.5c-0.1-0.4-0.6-2.3-1.2-2.2c-0.4,0-0.5,0.9-0.5,1.1c0,1.2,0.1,2.3,0.5,3.4
		c0.4,2.3,0.7,4.6,0.8,6.9l-0.1,0.4c0,0.1,0,0.2,0,0.4s0,0.1,0,0.1c0,0,0,0.1,0,0.1c0,0,0.1,0,0.1,0c0-0.1,0-0.2,0-0.3
		c0,0.1,0,0.2,0,0.2l0,0c0-0.1,0-0.2,0-0.2v0c0-0.1,0-0.3,0-0.4C612.6,427.8,612.8,425.8,613,423.8z M612.2,429
		c-0.1-1.4-0.2-2.7-0.4-4c-0.2-1.1-0.4-2.1-0.6-3.2c-0.2-0.6-0.2-1.2-0.3-1.8c0-0.5,0-2.2,0.9-1.1c0.6,1,0.9,2.2,0.9,3.4
		c0.1,1.1,0.1,2.1-0.1,3.2C612.6,426.6,612.4,427.8,612.2,429L612.2,429z"/>
	<path class="st5" d="M613.6,437.2L613.6,437.2L613.6,437.2c-2.4-0.1-5.5,0.1-7.4-1.4c-1.4-1.1-2.8-3.4-2.4-5.3
		c0.5-2.1,3.4,0.4,4.2,1c2,1.7,3.9,3.6,5.7,5.5l0,0l0,0C613.7,437,613.7,437.2,613.6,437.2z"/>
	<path class="st2" d="M613.7,437.1l-0.4-0.2c-1.5-1-3-2-4.4-3.1c-0.4-0.3-3-2.6-3.4-1.8c-0.2,0.5,0.6,1.5,0.9,1.9
		c0.5,0.6,1.1,1.1,1.8,1.6c1.5,1,3.4,1.2,5.2,1.6l0.2,0.1l0,0l0,0C613.7,437.2,613.7,437.1,613.7,437.1z M609.1,435.8
		c-0.7-0.3-1.4-0.8-2-1.4c-0.4-0.4-1.8-1.8-1.4-2.3c0.2-0.3,0.3-0.1,0.7,0c0.2,0.1,0.3,0.2,0.5,0.3c0.4,0.3,0.8,0.5,1.1,0.8
		c0.6,0.5,1.3,1,1.9,1.5c1.1,0.8,2.2,1.5,3.3,2.2C611.9,436.7,610.5,436.3,609.1,435.8z"/>
	<path class="st5" d="M617.9,432.4c-0.6,2.7-2,5.1-4,6.9l0,0c0,0-0.1,0-0.1,0c0,0,0-0.1,0-0.1l0.1-0.1c0.4-3.1,0.8-6.3,1.1-9.4
		c0.1-0.7,0.7-5.5,2.1-4.7c0.9,0.5,1,2.4,1,3.3C618.2,429.6,618.2,431,617.9,432.4z"/>
	<path class="st2" d="M617,428.2c-0.1-0.3-0.2-0.5-0.5-0.4c-0.6,0.4-0.8,2.6-0.9,3.2c-0.4,2.5-1,5-1.6,7.5c0,0.2-0.1,0.4-0.2,0.6
		l-0.1,0.2c0,0,0.1,0,0.1,0c0,0,0,0,0-0.1l0.2-0.3l0,0c1-1.4,1.8-2.9,2.3-4.5c0.3-1,0.6-2.1,0.7-3.1
		C617.2,430.4,617.2,429.3,617,428.2z M614,438.9c0,0-0.1,0.1-0.1,0.1c0-0.1,0-0.2,0.1-0.3c0.6-1.9,1.1-3.8,1.4-5.8
		c0.2-1,0.3-2,0.5-3c0.1-0.4,0.3-1.6,0.6-1.8s0.3,0.3,0.4,0.5s0,0.5,0,0.7C617,432.8,616,436.1,614,438.9L614,438.9z"/>
	<path class="st5" d="M614.3,446.1h-0.5v-1.2c-0.1-1.6-0.1-3.3-0.2-4.9c-0.1-0.9-0.1-1.9-0.2-2.8c0,0,0-0.1,0-0.1v-0.2
		c0-0.1,0-0.2,0-0.2c-0.2-2.1-0.7-4.1-1.6-6c-0.3-0.6-0.6-1.3-1-1.9l-0.1-0.2l0,0c0-0.1-0.1-0.1-0.1-0.2l-0.1-0.1
		c-1.1-1.9-2.3-3.7-3.5-5.5l-1-1.6l-0.1-0.1c0,0-0.1-0.1-0.1-0.1c-1.5-2.3-2.9-4.6-4.4-6.9c-0.1-0.1,0.1-0.2,0.1-0.1
		c1,1.5,2.1,3,3.1,4.5l0.4,0.6l0.8,1.2c0.5,0.8,1.1,1.6,1.6,2.4c1.6,2.2,3,4.5,4.3,6.9c0.1,0.2,0.2,0.4,0.3,0.5s0.1,0.2,0.2,0.3
		l0.2,0.4c0.9,2.3,1.4,4.7,1.5,7.2v0.5c0,0.1,0,0.2,0,0.2s0,0.1,0,0.1s0,0.1,0,0.2l0,0v0.1c0,0.1,0,0.3,0,0.5
		c0.1,1.6,0.1,3.3,0.2,4.9C614.2,445.1,614.3,445.6,614.3,446.1z"/>
	<path class="st5" d="M600.5,416.3c-1.3-1.7-2.9-5.2-1-7c0.7-0.7,1.8-0.8,2.7-0.2c0.9,0.8,1.5,2,1.8,3.2c0.9,3,1.4,6,2.5,9
		c0,0.1,0.1,0.2,0.1,0.3c0,0.1-0.1,0.1-0.1,0s-0.1-0.2-0.1-0.3C604.2,419.8,602,418.4,600.5,416.3z"/>
	<path class="st2" d="M606.3,421.2L606.3,421.2c-0.4-0.8-0.8-1.5-1.2-2.2c-0.7-1.6-1.3-3.2-1.8-4.9c-0.2-0.6-1.1-3.8-2.2-2.5
		c-0.4,0.6-0.5,1.4-0.3,2.1c0.1,1,0.5,2,1,2.9c1.1,1.7,2.5,3.2,4.2,4.4l0.2,0.2c0,0,0,0,0,0.1v0l0,0
		C606.2,421.3,606.3,421.3,606.3,421.2C606.3,421.3,606.3,421.3,606.3,421.2C606.3,421.3,606.3,421.2,606.3,421.2z M605.9,420.9
		c-1.4-1-2.6-2.2-3.6-3.6c-0.5-0.7-0.9-1.5-1.2-2.4c-0.1-0.4-0.2-0.8-0.2-1.1c0-0.3,0-0.6,0-0.9c0-0.6,0.3-1.4,0.7-1.4
		s0.6,0.2,0.9,0.7c0.1,0.2,0.2,0.4,0.3,0.6c0.2,0.5,0.4,1,0.5,1.5c0.3,0.8,0.5,1.7,0.8,2.5c0.2,0.6,0.4,1.1,0.7,1.6
		c0.4,0.9,0.9,1.8,1.4,2.7L605.9,420.9z"/>
	<path class="st9" d="M639.7,406.7c-0.3,2.5-0.8,4.9-1.3,7.4c-0.3,1.4-0.6,2.8-0.9,4.2c-0.5,1.5-0.6,3.1-0.3,4.6l0,0
		c0,0.1,0,0.1,0,0.2l0,0c-0.1,0.1-0.2,0.1-0.3,0c0,0-0.1-0.1-0.1-0.1V423l0,0c-0.2-0.4-0.4-0.8-0.5-1.3c-0.5-1.2-0.9-2.4-1.2-3.6
		c-0.7-2.5-1.1-5.1-1.2-7.6c-0.1-2.3,0.2-4.6,0.7-6.9c0.5-1.8,1.1-4.5,2.4-5.9s2.2,0.8,2.6,1.8C640.4,401.8,640,404.4,639.7,406.7z"
		/>
	<path class="st2" d="M637.5,401.5c-0.9,0-1.6,2.9-1.9,4.2c-0.5,2-0.8,4-0.8,6.1c0,3.7,0.6,7.3,1.9,10.8c0,0.1,0.1,0.3,0.2,0.4l0,0
		v0.1c0,0.1,0.2,0.1,0.2,0.1c0,0,0.1,0,0.1-0.1c-0.1-0.3-0.1-0.6-0.1-0.9s-0.1-0.5-0.1-0.8c-0.1-3,0.1-6,0.5-9
		C638,409,638.7,401.5,637.5,401.5z M636.8,422c0,0.4,0.1,0.8,0.2,1.2c-0.1-0.3-0.2-0.6-0.3-0.9c-1-3.1-1.6-6.3-1.7-9.5
		c-0.1-1.8,0.1-3.7,0.4-5.5c0.2-1,0.4-1.9,0.7-2.9c0.1-0.4,0.8-2.8,1.3-2.7c0.4,0.1,0.5,2.3,0.5,2.3c0,0.4,0,0.9,0,1.3
		c0,0.9-0.1,1.8-0.2,2.7c-0.2,2-0.5,3.9-0.7,5.9C636.7,416.7,636.6,419.3,636.8,422z"/>
	<path class="st9" d="M653.9,413.6c-1.7,3.2-4.5,5.7-7.3,7.9c-1.5,1.1-3.2,2.2-4.7,3.3c-1.5,0.9-2.8,2-4.1,3.1l-0.2,0.2
		c-0.3,0.4-0.6,0.7-0.8,1.2c0,0,0,0-0.1,0c0,0,0,0.1,0,0.1c0,0-0.1,0-0.1,0s0-0.1,0-0.2l0,0c0,0,0-0.1,0-0.1c0,0,0,0,0,0
		c0-0.1,0-0.1,0-0.2c0.5-3.8,3.1-7.6,5.3-10.5c2.1-3,5.1-5.4,8.5-6.8c0.9-0.3,2.8-1.3,3.7-0.5S654.3,412.9,653.9,413.6z"/>
	<path class="st2" d="M651.3,413.6c-0.8-0.8-3.1,1.2-3.7,1.6c-1.7,1.4-3.3,3-4.8,4.7c-2.5,2.6-4.6,5.6-6.1,8.9l0,0l-0.1,0.1v0.2
		c0,0,0,0,0,0c0,0,0,0.1,0,0.1c0,0,0.1-0.1,0.1-0.1c0.3-0.4,0.6-0.7,0.9-1l0.2-0.2c2.3-2.3,4.7-4.4,7.2-6.4c1.7-1.4,3.3-2.9,4.8-4.6
		C650.1,416.4,652,414.3,651.3,413.6z M650.6,415.3c-2,3.2-5.3,5.6-8.2,8c-2,1.6-3.8,3.3-5.5,5.2c1.5-2.9,3.4-5.6,5.7-8
		c1.2-1.4,2.5-2.7,3.9-4c0.7-0.7,1.5-1.3,2.4-1.9c0.5-0.3,1-0.6,1.6-0.9C651.6,413.4,651,414.8,650.6,415.3L650.6,415.3z"/>
	<path class="st9" d="M636.3,436.9c0,0.1-0.1,0.1-0.2,0.1v0.1c0,0,0,0.1,0,0.1c0,0,0,0-0.1,0c0,0,0,0,0,0c-3.3-3.1-5.8-6.9-7.5-11
		c-0.7-1.7-1-3.6-1.1-5.4c0-1.3-0.1-3.8,1-4.8c2.2-1.9,4.2,6,4.5,7.2c0.5,2.2,0.9,4.4,1.4,6.6c0.5,2.4,1.3,4.7,2,7.1
		C636.3,436.8,636.3,436.9,636.3,436.9z"/>
	<path class="st2" d="M636.3,436.9c-0.1-0.2-0.2-0.4-0.3-0.6c-1.8-3.3-3.2-6.9-3.9-10.6c-0.3-1.9-0.8-3.7-1.5-5.5
		c-0.2-0.4-0.7-2.1-1.5-1.3c-0.4,0.4-0.1,3.6,0.1,4.5c0.4,1.9,1,3.7,1.8,5.4c1.3,2.9,3,5.7,5,8.2l0.2,0.2c0,0,0-0.1,0-0.1
		c0,0,0,0,0-0.1C636.2,437,636.2,437,636.3,436.9z M631.8,430.1c-0.9-1.7-1.6-3.5-2.1-5.3c-0.2-0.7-0.4-1.5-0.5-2.2
		c-0.1-0.6-0.1-1.2-0.2-1.8c0-1.5,0.1-1.8,0.4-1.9s0.4,0.1,0.8,1c0.3,0.6,0.5,1.2,0.6,1.8c0.2,0.9,0.4,1.7,0.6,2.6
		c0.4,1.7,0.7,3.5,1.2,5.1c0.7,2.4,1.7,4.8,3,6.9C634.2,434.4,632.9,432.3,631.8,430.1L631.8,430.1z"/>
	<path class="st9" d="M646.1,429.3c-0.4,1.5-1,2.9-2,4.2c-1.8,2.5-4.2,4.6-6.1,7c-0.3,0.4-0.6,0.7-0.9,1.1c0,0-0.3,0.6-0.3,0.5
		s0-0.2,0.1-0.5l0,0c0.3-1.7,1.4-6.7,2.7-9.3c0.8-1.6,1.8-3.2,2.9-4.5c0.6-0.6,1.9-2,2.9-1.7S646.2,428.5,646.1,429.3z"/>
	<path class="st2" d="M644.5,428.3c-1.1-0.7-3.8,4.2-4.2,4.9c-1.4,2.3-2.4,4.9-3.1,7.5c-0.1,0.3-0.2,0.6-0.2,0.9s-0.1,0.5-0.1,0.5
		s0.2-0.5,0.3-0.5l0.1-0.2l0.7-0.9c1.2-1.8,2.4-3.5,3.6-5.4c0.8-1.3,1.6-2.7,2.2-4.1C643.9,430.7,644.9,428.6,644.5,428.3z
		 M644.2,429.7c-1.5,4.3-4.6,7.6-7,11.4c0,0.1-0.1,0.1-0.1,0.2c0-0.1,0.1-0.2,0.1-0.3c0.6-2.2,1.5-4.2,2.5-6.2
		c0.6-1.2,1.3-2.4,2.1-3.5c0.4-0.6,0.8-1.2,1.3-1.8c0.2-0.2,0.8-0.9,1.1-0.8S644.3,429.4,644.2,429.7z"/>
	<path class="st9" d="M656.8,394.1c-3.2,7.3-11.5,10.7-15.1,17.7l0,0c-0.1,0.2-0.2,0.4-0.3,0.6c0,0.1-0.1,0.1-0.2,0c0,0,0,0,0,0
		c0,0,0-0.1,0-0.1c0-0.1,0-0.1,0.1-0.1c0.7-4.5,2.2-8.8,4.4-12.7c1.7-3.5,4.4-6.3,7.8-8.3c0.8-0.4,2.5-1.4,3.5-0.6
		S657.2,393.2,656.8,394.1z"/>
	<path class="st2" d="M653.9,394.4c-0.4-0.3-1,0.1-1.4,0.2c-0.9,0.5-1.7,1-2.4,1.6c-1.5,1.3-2.8,2.9-3.8,4.5
		c-1.9,2.9-3.4,5.9-4.5,9.1c-0.2,0.7-0.5,1.5-0.6,2.2c0,0.1,0,0.2-0.1,0.3c0.1,0.1,0.2,0.1,0.2,0c0,0,0,0,0,0
		c0.1-0.2,0.2-0.4,0.3-0.6c0,0,0,0,0-0.1c0.6-1.5,1.4-2.8,2.3-4.1c1.5-2,3-3.8,4.7-5.6C649.4,401.3,655.3,395.4,653.9,394.4z
		 M653.4,396.1c-1.1,1.7-2.3,3.2-3.8,4.6c-1.3,1.5-2.6,2.9-3.9,4.4c-1,1.2-2,2.4-2.8,3.8c-0.7,1.1-1.3,2.3-1.7,3.5
		c0.3-1.2,0.8-2.5,1.2-3.6l0,0c0.9-2.1,1.9-4.1,3.1-6.1v-0.1c1-1.8,2.1-3.4,3.5-4.9c0.8-0.8,1.6-1.5,2.5-2.1c1-0.7,2-1.1,2.2-0.8
		S653.7,395.6,653.4,396.1z"/>
	<path class="st9" d="M645.7,402.6c-1,2-1.9,4.1-2.8,6.2c-0.4,1-0.8,2-1.3,2.9c0,0,0,0,0,0.1l-0.5,1.1c-1.5,3.2-2.7,6.5-3.7,9.8
		c-0.4,1.8-0.7,3.6-0.8,5.5v0.6l0,0c0,0.1,0,0.2,0,0.3v0.2c-0.1,1.6,0,3.2,0,4.8c0,2.2,0.2,4.3,0.4,6.5c0,0.1,0,0.1,0,0.2
		c0,0.1,0,0.2,0,0.3s0,0.1,0,0.1s0,0.2,0,0.3c0.1,0.7,0.1,1.4,0.2,2.1h-0.7c-0.4-2.1-0.7-4.2-0.8-6.4c0,0,0-0.1,0-0.1v-0.6
		c0-0.3,0-0.5,0-0.8c0-0.6,0-1.2-0.1-1.8c-0.2-3.6,0.1-7.2,0.8-10.7c0-0.1,0.1-0.2,0.1-0.3v-0.1c0-0.1,0-0.1,0-0.2l0.1-0.3
		c0.1-0.2,0.1-0.4,0.2-0.6v-0.2c1-3,2.2-6,3.7-8.8c0.2-0.5,0.5-1,0.7-1.6l0.4-0.9l0.6-1.3l0,0c1-2,2.1-4.1,3.1-6.1
		C645.6,402.5,645.8,402.5,645.7,402.6z"/>
	<path class="st5" d="M66.4,428.7c-2.5,0.1-5.4,0.2-7.5-1.4c-1.9-1.5-3.7-3.8-3.4-6.4c0.1-0.7,0.2-1.2,1-0.9c1.2,0.5,2.1,1.8,3,2.8
		c1.1,1.2,2.2,2.3,3.5,3.3c0.9,0.7,1.9,1.3,2.8,2l0.3,0.3l0.1,0.1h0.1c0,0,0.1,0,0.1,0l0,0C66.5,428.6,66.5,428.7,66.4,428.7
		C66.4,428.7,66.4,428.7,66.4,428.7z"/>
	<path class="st2" d="M66.5,428.5c-2.2,0-4.6,0.1-6.4-1.4c-0.8-0.7-1.5-1.6-2.1-2.5c-0.3-0.4-1-1.7-0.7-2.2c0.6-0.9,3.2,2.8,3.6,3.1
		c1.4,1.3,3.1,2.1,4.9,2.5l0.3,0.3c-1.3-0.3-2.6-0.7-3.7-1.4c-1.6-0.9-2.5-2.3-3.7-3.6c-0.3-0.3-1.1-1.2-1.4-0.6
		c-0.2,0.4,0.5,1.6,0.7,1.9c0.5,0.9,1.2,1.7,2,2.4C61.9,428.4,64.3,428.4,66.5,428.5L66.5,428.5z"/>
	<path class="st5" d="M67.8,430.2c0,0.1-0.1,0.2-0.1,0.3l0,0l0,0c0,0-0.1,0-0.1,0c0,0,0,0,0-0.1l0,0v-0.1l0,0l0,0
		c-0.4-1.7-0.6-3.4-1.1-5.1s-1-3.2-1.3-4.8c-0.2-1-0.9-6.2,1.3-5.5c1,0.3,1.7,1.7,2.1,2.6c0.5,1.2,0.8,2.4,0.8,3.7
		C69.6,424.4,68.4,427.2,67.8,430.2z"/>
	<path class="st2" d="M68.5,423.8c0.1-1.2-0.1-2.4-0.4-3.5c-0.1-0.4-0.6-2.3-1.2-2.2c-0.4,0-0.5,0.9-0.5,1.1c0,1.2,0.1,2.3,0.4,3.4
		c0.4,2.3,0.7,4.6,0.8,6.9c0,0.1,0,0.3-0.1,0.4s0,0.2,0,0.4s0,0.1,0,0.1s0,0.1,0,0.1c0,0,0.1,0,0.1,0c0-0.1,0-0.2,0-0.3
		c0,0.1,0,0.2,0,0.2l0,0c0-0.1,0-0.2,0-0.2v-0.4C68.1,427.8,68.4,425.8,68.5,423.8z M67.8,429c-0.1-1.4-0.2-2.7-0.4-4
		c-0.2-1.1-0.4-2.1-0.6-3.2c-0.1-0.6-0.2-1.2-0.3-1.8c0-0.5,0.1-2.2,1-1.1c0.6,1,0.9,2.2,0.9,3.4c0.1,1.1,0.1,2.1-0.1,3.2
		C68.1,426.6,67.9,427.8,67.8,429z"/>
	<path class="st5" d="M69.2,437.2L69.2,437.2L69.2,437.2c-2.4-0.1-5.5,0.1-7.4-1.4c-1.4-1.1-2.8-3.4-2.4-5.3c0.5-2.1,3.4,0.4,4.2,1
		c2,1.7,3.9,3.6,5.7,5.5l0,0l0,0C69.2,437,69.2,437.2,69.2,437.2z"/>
	<path class="st2" d="M69.2,437.1l-0.4-0.2c-1.5-1-3-2-4.4-3.1c-0.4-0.3-3-2.6-3.4-1.8c-0.2,0.5,0.6,1.5,0.9,1.9
		c0.5,0.6,1.1,1.1,1.8,1.6c1.5,1,3.4,1.2,5.2,1.6l0.2,0.1l0,0l0,0C69.1,437.2,69.3,437.1,69.2,437.1z M64.7,435.8
		c-0.7-0.3-1.4-0.8-2-1.4c-0.4-0.4-1.8-1.8-1.4-2.3c0.2-0.3,0.3-0.1,0.7,0c0.2,0.1,0.3,0.2,0.5,0.3c0.4,0.2,0.7,0.5,1.1,0.8
		c0.6,0.5,1.3,1,1.9,1.5c1.1,0.8,2.2,1.5,3.3,2.2C67.4,436.7,66,436.3,64.7,435.8z"/>
	<path class="st5" d="M73.4,432.4c-0.6,2.7-2,5.1-4,6.9l0,0c0,0-0.1,0-0.1,0c0,0,0-0.1,0-0.1l0.1-0.1c0.4-3.1,0.8-6.3,1.1-9.4
		c0.1-0.7,0.7-5.5,2.1-4.7c0.9,0.5,1,2.4,1,3.3C73.8,429.6,73.7,431,73.4,432.4z"/>
	<path class="st2" d="M72.6,428.2c-0.1-0.3-0.2-0.5-0.5-0.4c-0.6,0.4-0.8,2.6-0.9,3.2c-0.4,2.5-1,5-1.6,7.5l-0.2,0.6l-0.1,0.2
		c0,0,0.1,0,0.1,0c0,0,0,0,0-0.1l0.2-0.3l0,0c1-1.4,1.8-2.9,2.3-4.5c0.3-1,0.6-2.1,0.7-3.1C72.7,430.4,72.7,429.3,72.6,428.2z
		 M69.6,438.9l-0.1,0.1l0.1-0.3c0.6-1.9,1.1-3.8,1.5-5.8c0.2-1,0.3-2,0.5-3c0.1-0.4,0.3-1.6,0.6-1.8s0.3,0.3,0.4,0.5
		c0,0.2,0,0.5,0,0.7C72.5,432.8,71.5,436.1,69.6,438.9L69.6,438.9z"/>
	<path class="st5" d="M69.8,446.1h-0.5v-1.2c0-1.6-0.1-3.3-0.2-4.9c0-0.9-0.1-1.9-0.2-2.8v-0.1c0-0.1,0-0.1,0-0.2v-0.2
		c-0.2-2.1-0.7-4.1-1.6-6c-0.3-0.7-0.6-1.3-1-1.9l-0.1-0.2l0,0l-0.1-0.2c0,0-0.1-0.1-0.1-0.1c-1.1-1.9-2.3-3.7-3.5-5.5
		c-0.3-0.5-0.7-1-1-1.6c0,0,0-0.1-0.1-0.1c0,0-0.1-0.1-0.1-0.1c-1.5-2.3-2.9-4.6-4.4-6.9c-0.1-0.1,0.1-0.2,0.1-0.1
		c1,1.5,2.1,3,3.1,4.5l0.4,0.6l0.8,1.2c0.5,0.8,1.1,1.6,1.6,2.4c1.6,2.2,3,4.5,4.3,6.9l0.3,0.5l0.2,0.3c0.1,0.1,0.1,0.3,0.2,0.4
		c0.9,2.3,1.4,4.7,1.5,7.2v0.5c0,0.1,0,0.2,0,0.2c0,0,0,0.1,0,0.1v0.2l0,0c0,0,0,0.1,0,0.1s0,0.3,0,0.5c0.1,1.6,0.1,3.3,0.1,4.9
		C69.8,445.1,69.8,445.6,69.8,446.1z"/>
	<path class="st5" d="M56,416.3c-1.3-1.7-2.9-5.2-1-7c0.7-0.7,1.8-0.8,2.7-0.2c0.9,0.8,1.5,2,1.8,3.2c0.8,3,1.4,6,2.5,9
		c0,0,0.1,0.2,0.1,0.3s-0.1,0.1-0.1,0l-0.1-0.3C59.7,419.8,57.5,418.4,56,416.3z"/>
	<path class="st2" d="M61.9,421.2C61.9,421.2,61.9,421.2,61.9,421.2c-0.4-0.8-0.8-1.5-1.2-2.2c-0.7-1.6-1.3-3.2-1.8-4.9
		c-0.2-0.6-1.1-3.8-2.2-2.5c-0.4,0.6-0.5,1.4-0.3,2.1c0.1,1,0.5,2,1,2.9c1.1,1.7,2.5,3.2,4.2,4.4l0.2,0.2v0.1v0l0,0h0.1L61.9,421.2z
		 M61.4,420.9c-1.4-1-2.6-2.2-3.6-3.6c-0.5-0.7-0.9-1.5-1.2-2.4c-0.1-0.4-0.2-0.8-0.2-1.1c0-0.3,0-0.6,0-0.9c0-0.6,0.3-1.4,0.7-1.4
		s0.6,0.2,0.9,0.7c0.1,0.2,0.2,0.4,0.3,0.6c0.2,0.5,0.4,1,0.5,1.5c0.3,0.8,0.5,1.7,0.8,2.5c0.2,0.6,0.4,1.1,0.7,1.6
		c0.4,0.9,0.9,1.8,1.4,2.7L61.4,420.9z"/>
	<path class="st9" d="M123.9,409.2c-0.8,2.4-1.7,4.7-2.6,7c-0.5,1.3-1.1,2.6-1.6,3.9c-0.8,1.4-1.2,2.9-1.2,4.5l0,0
		c0,0.1,0,0.1,0,0.2l0,0c-0.1,0.1-0.2,0.1-0.3,0c0,0,0-0.1,0-0.1c0,0,0-0.1,0-0.1l0,0c-0.1-0.4-0.2-0.9-0.3-1.4
		c-0.2-1.2-0.4-2.5-0.5-3.8c-0.2-2.6-0.1-5.2,0.3-7.7c0.4-2.3,1-4.5,2-6.6c0.8-1.7,1.9-4.2,3.5-5.3s2,1.1,2.2,2.2
		C125.5,404.4,124.6,406.9,123.9,409.2z"/>
	<path class="st2" d="M122.7,403.6c-0.9-0.2-2.1,2.6-2.6,3.8c-0.9,1.9-1.5,3.8-1.9,5.8c-0.7,3.6-0.7,7.3-0.2,11l0.1,0.4l0,0
		c0,0,0,0.1,0,0.1c0,0.1,0.1,0.2,0.2,0.2c0,0,0.1,0,0.1,0c0-0.3,0-0.6,0-0.9s0-0.5,0.1-0.8c0.4-3,1.2-5.9,2.2-8.7
		C121.8,411.1,123.9,403.8,122.7,403.6z M118.2,423.6c0,0.4,0,0.8,0,1.2c0-0.3-0.1-0.6-0.1-0.9c-0.4-3.2-0.4-6.5,0.1-9.7
		c0.3-1.8,0.8-3.6,1.4-5.3c0.4-0.9,0.8-1.8,1.2-2.7c0.2-0.4,1.3-2.6,1.8-2.4s0,2.3,0,2.4c-0.1,0.4-0.1,0.9-0.2,1.3
		c-0.2,0.9-0.4,1.8-0.7,2.6c-0.5,1.9-1.2,3.8-1.8,5.6C119.1,418.4,118.5,421,118.2,423.6L118.2,423.6z"/>
	<path class="st9" d="M136.6,418.6c-2.2,2.9-5.4,4.8-8.7,6.3c-1.7,0.8-3.5,1.6-5.2,2.4c-1.6,0.6-3.1,1.4-4.6,2.3l-0.2,0.1
		c-0.4,0.3-0.7,0.6-1.1,1c0,0-0.1,0-0.1,0c0,0,0,0.1-0.1,0.1c0,0-0.1,0-0.1,0c0-0.1,0-0.1,0-0.2l0,0c0,0,0-0.1,0-0.1c0,0,0,0,0,0v0
		c0,0,0-0.1,0-0.1c1.2-3.6,4.5-6.9,7.2-9.3c2.7-2.5,6-4.3,9.6-5.1c0.9-0.2,3-0.7,3.8,0.2S137.1,418,136.6,418.6z"/>
	<path class="st2" d="M134.1,418.1c-0.6-0.9-3.3,0.5-3.9,0.9c-2,1.1-3.8,2.3-5.6,3.7c-2.9,2.1-5.5,4.7-7.7,7.6l0,0l-0.1,0.1
		c0,0,0,0.1,0,0.1v0c0,0,0,0.1,0,0.1c0,0,0,0,0,0l0.1-0.1c0.3-0.3,0.7-0.6,1.1-0.9l0.2-0.1c2.6-1.8,5.4-3.4,8.2-4.9
		c2-1,3.8-2.3,5.6-3.7C132.3,420.7,134.6,418.9,134.1,418.1z M133.1,419.7c-2.5,2.8-6.3,4.5-9.6,6.3c-2.2,1.2-4.4,2.5-6.3,4.1
		c2-2.6,4.4-4.8,7.1-6.8c1.5-1.2,3-2.2,4.6-3.2c0.9-0.5,1.8-1,2.7-1.4c0.6-0.3,1.1-0.4,1.7-0.5C134.3,418,133.5,419.2,133.1,419.7
		L133.1,419.7z"/>
	<path class="st9" d="M114.8,438.2c0,0.1-0.1,0.1-0.2,0.1v0.1c0,0,0,0.1,0,0.1c0,0-0.1,0-0.1,0c-2.6-3.7-4.4-7.9-5.3-12.3
		c-0.3-1.8-0.3-3.7-0.1-5.6c0.2-1.2,0.6-3.8,1.9-4.5c2.5-1.4,3,6.7,3.1,8c0.1,2.2,0.1,4.5,0.1,6.7
		C114.3,433.2,114.6,435.7,114.8,438.2C114.9,438.1,114.9,438.2,114.8,438.2z"/>
	<path class="st2" d="M114.8,438.2c-0.1-0.2-0.2-0.4-0.2-0.7c-1.2-3.6-1.8-7.4-1.9-11.2c0-1.9-0.1-3.8-0.4-5.7
		c-0.1-0.5-0.3-2.2-1.2-1.5c-0.4,0.4-0.8,3.6-0.8,4.4c0,1.9,0.2,3.8,0.7,5.7c0.8,3.1,1.9,6.2,3.4,9l0.1,0.2c0,0,0,0,0-0.1v-0.1
		C114.7,438.3,114.8,438.2,114.8,438.2z M111.8,430.7c-0.6-1.8-0.9-3.7-1.1-5.6c0-0.8,0-1.5,0-2.3c0-0.6,0.1-1.2,0.2-1.8
		c0.3-1.4,0.5-1.8,0.7-1.8s0.3,0.2,0.6,1.1c0.1,0.6,0.2,1.2,0.3,1.8c0.1,0.9,0.1,1.8,0.1,2.6c0,1.8,0.1,3.5,0.2,5.3
		c0.2,2.5,0.8,5,1.7,7.4C113.4,435.3,112.5,433,111.8,430.7z"/>
	<path class="st9" d="M125.9,432.6c-0.6,1.4-1.6,2.7-2.8,3.7c-2.3,2.1-4.9,3.7-7.3,5.7l-1.1,0.9c0,0-0.4,0.5-0.3,0.5
		s0.1-0.2,0.2-0.5l0,0c0.6-1.6,2.6-6.3,4.4-8.6c1.1-1.5,2.3-2.8,3.7-3.9c0.7-0.5,2.2-1.6,3.2-1.1S126.2,431.8,125.9,432.6z"/>
	<path class="st2" d="M124.5,431.3c-0.9-0.9-4.5,3.5-5,4c-1.8,2-3.3,4.3-4.5,6.7c-0.1,0.3-0.3,0.5-0.4,0.8s-0.2,0.5-0.2,0.5
		s0.3-0.4,0.4-0.5s0.1-0.1,0.2-0.2c0.3-0.3,0.6-0.5,0.9-0.8c1.5-1.5,3-3,4.5-4.6c1.1-1.1,2.1-2.3,2.9-3.6
		C123.5,433.5,125,431.6,124.5,431.3z M124,432.6c-2.3,3.9-6,6.6-9,9.9l-0.2,0.2c0.1-0.1,0.1-0.2,0.2-0.3c1-2,2.2-3.9,3.6-5.6
		c0.8-1.1,1.8-2.1,2.7-3c0.5-0.6,1.1-1.1,1.6-1.5c0.3-0.2,1-0.7,1.2-0.6S124.1,432.3,124,432.6L124,432.6z"/>
	<path class="st9" d="M143.1,400c-4.5,6.5-13.3,8.3-18.1,14.5l0,0c-0.2,0.2-0.3,0.4-0.4,0.6c0,0.1-0.1,0.1-0.2,0c0,0,0,0,0,0
		c0,0,0-0.1,0-0.1l0.1-0.1c1.5-4.3,3.8-8.2,6.8-11.7c2.3-3.1,5.5-5.4,9.2-6.6c0.9-0.3,2.7-0.9,3.5,0S143.6,399.2,143.1,400z"/>
	<path class="st2" d="M140.2,399.8c-0.3-0.4-1-0.1-1.4,0c-0.9,0.3-1.8,0.7-2.7,1.2c-1.7,1-3.3,2.3-4.6,3.8c-2.4,2.5-4.4,5.2-6.2,8.1
		c-0.4,0.7-0.7,1.4-1,2.1l-0.1,0.3c0,0.1,0.1,0.1,0.2,0c0,0,0,0,0,0c0.1-0.2,0.3-0.4,0.4-0.6v0c0.9-1.3,1.9-2.5,3-3.6
		c1.8-1.7,3.7-3.2,5.7-4.6C134.4,405.7,141.4,401,140.2,399.8z M139.4,401.3c-1.4,1.4-2.9,2.7-4.6,3.8c-1.6,1.2-3.1,2.4-4.7,3.6
		c-1.2,1-2.4,2-3.4,3.2c-0.9,1-1.7,2-2.4,3.1c0.6-1.2,1.2-2.3,1.9-3.3l0,0c1.3-1.9,2.7-3.7,4.2-5.4l0.1-0.1c1.3-1.6,2.7-2.9,4.4-4.1
		c0.9-0.6,1.8-1.2,2.8-1.6c1.1-0.5,2.1-0.7,2.3-0.4S139.8,400.9,139.4,401.3L139.4,401.3z"/>
	<path class="st9" d="M130.6,406.3c-1.3,1.8-2.6,3.7-3.9,5.6l-1.8,2.6v0l-0.6,1c-2.1,2.8-3.9,5.9-5.5,9c-0.8,1.7-1.3,3.4-1.8,5.2
		c0,0.2-0.1,0.4-0.1,0.5l0,0c0,0.1,0,0.2-0.1,0.3v0.2c-0.4,1.6-0.6,3.1-0.9,4.7c-0.4,2.1-0.6,4.3-0.8,6.4c0,0.1,0,0.1,0,0.2
		c0,0.1,0,0.2,0,0.3c0,0,0,0.1,0,0.1c0,0.1,0,0.2,0,0.3c-0.1,0.7-0.1,1.4-0.2,2.1l-0.7-0.1c0-2.2,0.1-4.3,0.4-6.4c0,0,0-0.1,0-0.1
		c0-0.2,0-0.4,0.1-0.6s0.1-0.5,0.1-0.8c0.1-0.6,0.2-1.2,0.3-1.8c0.5-3.6,1.4-7,2.8-10.4l0.1-0.3c0,0,0-0.1,0-0.1l0.1-0.2l0.1-0.3
		c0.1-0.2,0.2-0.4,0.3-0.5l0.1-0.2c1.6-2.8,3.3-5.5,5.2-8l1-1.4l0.6-0.8l0.9-1.1l0,0C127.7,409.8,129.2,408.1,130.6,406.3
		C130.5,406.1,130.7,406.2,130.6,406.3z"/>
</g>
<g id="freepik--Rocks--inject-18">
	<path class="st6" d="M53.5,451.5h74.6c0,0,0.3-6.4-2.3-8.8s-5.2-2.9-6-3.4c-2-1.4-3.9-2.9-5.6-4.5c-1.9-1.8-4.7-4.5-6.1-4.8
		s-8-1.3-9.3-0.9s-8.7,5.1-9.5,5.3s-14.9,5.3-16.2,5.5s-8.6,1.7-11.8,3.1C56.7,445,53.5,451.5,53.5,451.5z"/>
	<path class="st12" d="M53.5,451.5h74.6c0,0,0.3-6.4-2.3-8.8s-5.2-2.9-6-3.4c-2-1.4-3.9-2.9-5.6-4.5c-1.9-1.8-4.7-4.5-6.1-4.8
		s-8-1.3-9.3-0.9s-8.7,5.1-9.5,5.3s-14.9,5.3-16.2,5.5s-8.6,1.7-11.8,3.1C56.7,445,53.5,451.5,53.5,451.5z"/>
	<path class="st6" d="M75.4,439.2c3.3,0.1,8.1,2.7,9.1,3.1c1.4,0.6,9.9-1.5,13.2-1.8c2.3-0.3,4.1-2.2,4.2-4.5
		c-0.2-0.6,3.7-1.7,3.2-3.1c-0.3-0.8-9-2.5-9-2.5c-2.7,1.5-6.5,3.9-7.1,4.1S79.9,437.7,75.4,439.2z"/>
	<path class="st6" d="M110.8,439.4c-0.1-1-3.7-2.7-4.7-2.5c-1.2,0.4-2.3,1.1-3.1,2.1c-0.3,0.5-1.5,3.2-0.3,3.2s3.4-1.5,4.7-1.6
		S110.8,440.2,110.8,439.4z"/>
	<path class="st6" d="M83.2,443.1c0.2-0.6-3.2-1.8-4.1-1.7s-1.7,1.4-1,1.7s1.9-0.1,2.5,0S83,443.6,83.2,443.1z"/>
	<path class="st6" d="M620.2,448.2h76.3c0,0-3.6-5-7.5-6.1s-12.9-4.3-14.5-6.1s-15.2-8.4-20.4-8.2s-13.8,6.1-15,7.5
		s-5.6,6.8-7.1,7.2S623.8,444.1,620.2,448.2z"/>
	<path class="st12" d="M620.2,448.2h76.3c0,0-3.6-5-7.5-6.1s-12.9-4.3-14.5-6.1s-15.2-8.4-20.4-8.2s-13.8,6.1-15,7.5
		s-5.6,6.8-7.1,7.2S623.8,444.1,620.2,448.2z"/>
	<path class="st6" d="M681.5,439.8c-1.4,0.3-2.9,0.4-4.4,0.4c-0.6-0.1-6.6-3-8.8-3.3s-14.1-0.8-15-2.1c-0.7-1,3.9-4.1,6.9-5.7
		c5.9,2,13.1,5.7,14.3,7c0.8,0.9,3.6,2.2,6.6,3.4L681.5,439.8z"/>
	<path class="st6" d="M661.5,439.5c0-0.7,4-1.2,4.9-1s4.8,1.8,4.1,2.2c-1.2,0.4-2.5,0.6-3.8,0.5C665.4,441,661.5,440.2,661.5,439.5z
		"/>
	<path class="st6" d="M129.2,454.9h-16.9c-1.8,0,2.1-5.6,3.7-6.4s5.8-0.4,6.8,0.5s5.3,3.8,5.9,4.2
		C129.1,453.7,129.3,454.3,129.2,454.9z"/>
	<path class="st6" d="M681,461.9c1.1,0,0.2-1.3-0.2-1.6c-1.1-0.7-2.3-1.1-3.5-1.2c-0.8,0.1-1.6,1.1-2.6,1.4s-2.5,1.1-2.3,1.4H681z"
		/>
	<path class="st6" d="M633.5,454.5h-33.1c0,0-0.1-4,1-5.5c0.7-0.9,1.7-1.6,2.7-2.1c0.9-0.9,1.7-1.8,2.5-2.8c0.9-1.1,2.1-2.9,2.7-3
		s3.5-0.8,4.1-0.5s3.8,3.2,4.2,3.3s6.6,3.3,7.2,3.4c1.8,0.5,3.6,1.1,5.2,2C632,450.4,633.5,454.5,633.5,454.5z"/>
</g>
<g id="freepik--Character--inject-18">
	<path class="st6" d="M156.2,252.5c0,0,110.1,79.2,164.8,85.5c54.2,6.2,183,0.2,210.6-5.5s67.2-30.8,67.2-30.8s-53.3,91.3-91,104.4
		s-179.5,13.9-220.4,4.9C193.8,390.3,156.2,252.5,156.2,252.5z"/>
	<path class="st12" d="M156.2,252.5c0,0,110.1,79.2,164.8,85.5c54.2,6.2,183,0.2,210.6-5.5s67.2-30.8,67.2-30.8s-53.3,91.3-91,104.4
		s-179.5,13.9-220.4,4.9C193.8,390.3,156.2,252.5,156.2,252.5z"/>
	<path class="st6" d="M156.2,252.5c0,0-6-3.4-7.1-4.8s-2.3-6.2-2.3-6.2l1.7-3.2c0,0,0.9,5.8,1.9,7.6S156.2,252.5,156.2,252.5z"/>
	<path class="st6" d="M156.2,252.5c0,0-4.9-0.9-6-2.1c-1.1-1.4-2-2.8-2.8-4.4l-0.8,2.2c0,0,2,4.1,3.4,4.6S156.2,252.5,156.2,252.5z"
		/>
	<path class="st6" d="M598.8,301.6c0,0,6.9-3.4,7.9-4.6s3.9-6.4,3.9-6.4l1.1,2.7c0,0-2.4,5-4,5.7S598.8,301.6,598.8,301.6z"/>
	<path class="st6" d="M609.3,285.2l0.9,3.2c0,0-4.2,7.4-5.2,8.1s-6.2,5.1-6.2,5.1s5-5.5,5.7-7.2S609.3,285.2,609.3,285.2z"/>
	<g class="st13">
		<path d="M158.4,254.1l13.3,15.1l13.4,15c8.9,10,17.9,20,27.2,29.6c2.3,2.4,4.7,4.8,7.1,7c2.5,2.2,5.2,4.1,8.2,5.6
			c5.8,3.3,11.9,6.1,18,8.9s12.2,5.4,18.4,8s12.4,5.2,18.6,7.6c-6.3-2.3-12.6-4.7-18.8-7.2s-12.4-5.1-18.6-7.8
			c-6.1-2.7-12.2-5.6-18.1-8.9c-3-1.6-5.8-3.5-8.4-5.7c-2.5-2.2-4.9-4.6-7.2-7c-9.3-9.7-18.2-19.7-27-29.8
			c-4.4-5.1-8.8-10.1-13.1-15.2L158.4,254.1z"/>
		<path d="M188.8,282.1l9.6,7.6c3.2,2.5,6.4,5.1,9.7,7.5c6.4,5,12.9,10,19.7,14.5c3.5,2.1,7.1,3.9,10.9,5.4c3.8,1.6,7.6,3,11.4,4.5
			c7.6,2.9,15.3,5.7,23,8.5c-7.8-2.5-15.5-5.1-23.2-7.9c-3.9-1.4-7.7-2.8-11.5-4.4c-3.9-1.4-7.6-3.2-11.1-5.4
			c-3.5-2.2-6.8-4.6-10-7.1s-6.5-5-9.7-7.5C201.2,292.8,194.9,287.5,188.8,282.1z"/>
		<path d="M208.3,291.5c3.7,2.5,7.3,5.1,11,7.7c1.8,1.3,3.6,2.6,5.5,3.8c1.9,1.2,3.7,2.6,5.6,3.7c3.9,2.1,8,3.9,12.2,5.3
			c4.2,1.5,8.4,2.9,12.7,4.2c-4.4-1-8.7-2.1-12.9-3.5c-4.3-1.3-8.5-3-12.4-5.1c-3.9-2.3-7.5-5-11.1-7.6S211.7,294.4,208.3,291.5z"/>
		<path d="M598.2,302c-5,5.4-10,10.7-15.2,15.9c-5.1,5.2-10.3,10.4-15.7,15.4c-1.4,1.3-2.8,2.4-4.4,3.4c-1.5,1-3.1,2-4.7,2.9
			c-3.2,1.9-6.3,3.7-9.5,5.5c-6.4,3.6-12.8,7.1-19.3,10.5l18.9-11.2c3.1-1.9,6.3-3.7,9.4-5.6c1.6-1,3.1-1.9,4.6-2.9
			c1.5-1,2.9-2.1,4.2-3.4c5.4-4.9,10.6-10,15.9-15.1L598.2,302z"/>
		<path d="M572.6,322.5c-5.3,4-10.8,7.9-16.5,11.5c-1.4,0.9-2.8,1.8-4.4,2.5c-1.5,0.7-3.1,1.3-4.7,1.8c-1.6,0.5-3.2,1-4.8,1.4
			s-3.2,0.8-4.9,1.2c-6.5,1.4-13.2,2.5-19.8,3.4s-13.3,1.5-20,1.9c3.3-0.4,6.6-0.8,9.9-1.3s6.6-0.9,9.9-1.4c6.6-1,13.2-2.1,19.7-3.6
			c1.6-0.3,3.2-0.8,4.9-1.1s3.2-0.8,4.8-1.3c1.6-0.4,3.1-1,4.6-1.7c1.5-0.7,2.9-1.6,4.3-2.4c2.9-1.7,5.7-3.5,8.5-5.3
			S569.8,324.3,572.6,322.5z"/>
		<path d="M579,315.5c-3.8,2.4-7.7,4.7-11.6,6.9s-7.8,4.4-11.9,6.4c-1,0.5-2.1,1-3.1,1.4c-1.1,0.4-2.2,0.7-3.2,1
			c-2.2,0.6-4.3,1.2-6.5,1.7c-4.4,1-8.8,2-13.2,2.8l13-3.5c2.2-0.6,4.3-1.2,6.5-1.8c1.1-0.3,2.1-0.6,3.2-1c1-0.4,2-0.8,3-1.4
			c4-2,8-4.1,11.9-6.2l6-3.1L579,315.5z"/>
	</g>
	<path class="st14" d="M234.2,270.2c-2.8,0.1-12.8,1.6-19.5,4.6c-3.2,1.5-12.1,6.6-11.1,9.2s3.6,1.3,3.6,1.3s-3.4,2.7-2.2,5.2
		s5.3,0.4,5.3,0.4s-3.3,3.1-1.9,5.5s5.2-0.4,5.2-0.4s-3.1,2.7-1.2,4.2c2.3,1.8,7.6-3.7,11.2-5.2c0.8-0.3,17.3-5.4,17.3-5.4
		L234.2,270.2z"/>
	<path class="st5" d="M213.6,295.9c3.9-4.1,6.3-5.2,11.6-6.6c0.1,0,0.1-0.2,0-0.2c-5.4,0.9-8.6,1.8-11.8,6.6
		C213.3,296,213.4,296.1,213.6,295.9z"/>
	<path class="st5" d="M210.1,291c4.4-3.9,7-5.1,12.5-7c0.1,0,0-0.2,0-0.1c-5.6,1.4-8.7,2.4-12.6,6.9
		C209.8,291,209.9,291.2,210.1,291z"/>
	<path class="st5" d="M207.6,285c4.5-3.5,7.3-5,12.9-6c0.1,0,0.1-0.1,0.1-0.1c0,0,0-0.1-0.1-0.1c-5,0.3-9.6,2.4-12.9,6.1
		C207.3,285.1,207.3,285.2,207.6,285z"/>
	<path class="st14" d="M244.9,289.8c0,0-5.2,4.8-7.9,6.4s-15.1,3.7-15.8,1.1c-0.8-3.4,6.1-6.1,9.7-6.9c0,0-1.8-7.9,2.7-10.9
		S244.9,289.8,244.9,289.8z"/>
	<path class="st5" d="M221.3,296.2c1.5-3.6,6.3-4.5,9.7-5.5c0.2,0,0.3-0.2,0.2-0.4c0,0,0-0.1-0.1-0.1c-0.6-3.4-0.3-8.3,2.2-10.8
		c0.1-0.1,0-0.2-0.1-0.1c-3.1,2.3-3.7,7.1-2.9,10.8C226.8,291,222.1,292.1,221.3,296.2C221.2,296.2,221.2,296.2,221.3,296.2z"/>
	<path class="st14" d="M245.2,317.6c17.3-8.9,37.8-36.2,32.5-43.1c-5.2-6.8-31.5-6.3-46.4-4c-2.2,0.3,1.9,3.4,3.4,11
		c0.8,3.6,2.8,13.2,5.7,12.1c1.7-0.6,7.1-0.9,8.6-0.8c1.2,0-6.9,9.8-10.4,16.3C232.4,320.2,240.5,320,245.2,317.6z"/>
	<path class="st14" d="M446.7,371.4c0,0,34.8,14.8,34.8,14.8c6.2,4.1,11.7,7.7,14.7,9.2h0c0.7,0.4,1.4,0.7,2.2,0.8h0.1
		c2.5-1,37.1-49.5,37.7-51.6s-5.3-4.1-8.1-3.3s-24.4,13.5-24.4,13.5l-35-14.5L446.7,371.4z"/>
	<path class="st14" d="M284.5,335.1c0.7,0.2,20.1,7.5,24.8,8.7c1.4,0.3,69.7-26.8,87.6-27.1c25.8-0.5,99.5,35.2,99.5,35.2
		l-20.7,31.9c0,0-63.2-25.8-80.7-25.8c-8.7,0-61.1,21.6-87.4,26c-32.5,5.4-47.8-17.4-47.8-17.4L284.5,335.1z"/>
	<path class="st8" d="M284.5,335.1c0.7,0.2,20.1,7.5,24.8,8.7c1.4,0.3,40.3-17.1,58.2-21.2l11.8,41.7c0,0-45.5,15.2-71.7,19.5
		c-32.5,5.4-47.8-17.4-47.8-17.4L284.5,335.1z"/>
	<path class="st5" d="M359.7,326.9c1.6,6.2,1,4.5,2.7,10.6c0.8,3,6.2,22.9,7.4,25.6c0,0,0.1,0.1,0.1,0c0,0,0,0,0,0
		c-0.3-3-6-22.8-6.9-25.8c-1.8-6.1-1.3-4.4-3.2-10.5C359.8,326.9,359.8,326.8,359.7,326.9C359.7,326.8,359.7,326.9,359.7,326.9
		L359.7,326.9z"/>
	<path class="st5" d="M361.6,362.8c0,0-38.4,11.2-47.1,13.6c-4.3,1.3-8.7,2.3-13.2,3c-4.5,0.6-9.1-0.4-13.4-1.7
		c-4.3-1.4-8.5-3.1-12.5-5.2c-4-2-7.9-4.2-11.7-6.7c3.8,2.4,7.7,4.5,11.8,6.5c4,2,8.2,3.6,12.5,4.9c4.3,1.2,8.8,2.1,13.2,1.5
		c4.4-0.8,8.7-1.8,13-3.1c17.2-5,47-13.6,47-13.6C362.6,361.7,365.9,361.5,361.6,362.8z"/>
	<path class="st5" d="M379.2,364.3c0,0-45.5,15.2-71.7,19.5c-22,3.6-36.1-5.6-42.9-11.9l109.5-25.7L379.2,364.3z"/>
	<path class="st14" d="M442.4,395.9l36.8,1.2c7.3,1.6,13.7,2.9,17.1,3.2h0c0.8,0.2,1.6,0.2,2.4,0c0,0,0,0,0,0
		c2-1.8,16.4-59.6,16.2-61.8s-6.4-1.9-8.8-0.1s-17.8,21.5-17.8,21.5l-37.8-0.7L442.4,395.9z"/>
	<path class="st14" d="M280.3,340.4c0.7,0.2,28.8,10.4,29.4,11.5c0.6,1.3,3.2,8.1,3.9,10.2c0,0,81.2-6.9,85.1-7
		c15.7-0.2,80.1,4.5,80.1,4.5l-5.9,37.3c0,0-66.7-2.4-91.1-2.6c-20.9-0.1-84.7,3.3-84.7,3.3c-32.9,1.9-46.2-20-46.2-20
		S280.2,340.4,280.3,340.4z"/>
	<path class="st5" d="M377.1,356.7c4.6-0.5,9.2-0.9,13.9-1.3c4.6-0.4,9.3-0.6,14-0.4c9.3,0.3,18.6,0.8,27.8,1.3s18.6,1,27.8,1.5
		s18.5,1.1,27.8,1.8l-0.1,0.1l6.9-8.4l-6.6,8.6l-0.1,0.1h-0.1c-9.3-0.4-18.6-0.8-27.8-1.3l-27.8-1.4l-27.8-1.5
		c-4.6-0.2-9.3-0.2-13.9,0.1C386.4,356.1,381.8,356.5,377.1,356.7z"/>
	<path class="st5" d="M512.3,350.6c-0.8,3.7-1.6,7.4-2.5,11.1s-1.8,7.4-2.8,11.1s-2,7.3-3,11l-1.6,5.5c-0.6,1.8-1.1,3.6-1.7,5.5
		c0.4-1.9,0.8-3.7,1.2-5.6l1.3-5.6c0.9-3.7,1.9-7.4,2.8-11.1s2-7.4,3-11S511.2,354.3,512.3,350.6z"/>
	<path class="st8" d="M313.2,350.9c-0.4,4.5-0.4,9,0,13.5c0,0.2,0.3,0.2,0.3,0c0.1-4.5,0.4-9,0.2-13.5c0-0.1-0.2-0.2-0.4-0.2
		C313.3,350.8,313.2,350.9,313.2,350.9z"/>
	<path class="st8" d="M286,342.8c-0.1,0-0.2,0.2-0.1,0.2c4.6,1.6,8.6,3.4,12.8,5.4c1.9,0.9,12.4,6.5,10.4,9.7
		c-0.3,0.5-1,0.6-1.9,0.4c-1.1-0.4-2.2-1-3.2-1.7c-2.2-1.2-4.4-2.4-6.7-3.4c-4.2-2-8.6-3.5-13.1-4.6c-0.1,0-0.1,0-0.1,0.1
		c0,0.1,0,0.1,0.1,0.1l0,0c6.1,2.1,12,4.6,17.7,7.6c2.7,1.5,6.5,4.5,8.1,1.6s-5-7.5-6.8-8.6C297.6,346.6,291.9,344.3,286,342.8z"/>
	<path class="st8" d="M309.3,358.1c0.6,0.6,1.3,1.1,2,1.6c0.5,0.4,1.1,0.8,1.8,1c0.1,0,0.2-0.1,0.1-0.2c-0.4-0.6-1-1.1-1.5-1.5
		c-0.6-0.5-1.2-1-1.9-1.6c-0.2-0.1-0.5,0-0.6,0.2C309.2,357.8,309.2,358,309.3,358.1z"/>
	<path class="st8" d="M280.3,340.4c0.7,0.2,28.8,10.4,29.4,11.5c0.6,1.3,3.2,8.1,3.9,10.2c0,0,58-7.2,61.9-7.2L358,396.3
		c-20.9-0.1-60.8,1.3-60.8,1.3c-32.9,1.9-46.2-20-46.2-20S280.2,340.4,280.3,340.4z"/>
	<path class="st5" d="M365.5,357.7c-2.6,5.9-1.9,4.1-4.4,10c-1.2,2.9-9.3,21.9-10,24.7c0,0,0,0.1,0.1,0.1c0,0,0,0,0.1,0
		c1.6-2.5,9.3-21.6,10.5-24.5c2.4-6,1.6-4.3,4-10.2C365.6,357.7,365.6,357.7,365.5,357.7C365.5,357.7,365.5,357.7,365.5,357.7z"/>
	<path class="st5" d="M313.2,350.9c-0.4,4.5-0.4,9,0,13.5c0,0.2,0.3,0.2,0.3,0c0.1-4.5,0.4-9,0.2-13.5c0-0.1-0.2-0.2-0.4-0.2
		C313.3,350.8,313.2,350.9,313.2,350.9z"/>
	<path class="st5" d="M286,342.8c-0.1,0-0.2,0.2-0.1,0.2c4.6,1.6,8.6,3.4,12.8,5.4c1.9,0.9,12.4,6.5,10.4,9.7
		c-0.3,0.5-1,0.6-1.9,0.4c-1.1-0.4-2.2-1-3.2-1.7c-2.2-1.2-4.4-2.4-6.7-3.4c-4.2-2-8.6-3.5-13.1-4.6c-0.1,0-0.1,0-0.1,0.1
		c0,0.1,0,0.1,0.1,0.1l0,0c6.1,2.1,12,4.6,17.7,7.6c2.7,1.5,6.5,4.5,8.1,1.6s-5-7.5-6.8-8.6C297.6,346.6,291.9,344.3,286,342.8z"/>
	<path class="st5" d="M309.3,358.1c0.6,0.6,1.3,1.1,2,1.6c0.5,0.4,1.1,0.8,1.8,1c0.1,0,0.2-0.1,0.1-0.2c-0.4-0.6-1-1.1-1.5-1.5
		c-0.6-0.5-1.2-1-1.9-1.6c-0.2-0.1-0.5,0-0.6,0.2C309.2,357.8,309.2,358,309.3,358.1z"/>
	<path class="st14" d="M284.5,335.1c-0.5,13.7-33.1,42.5-33.6,42.5c-1.3,0-25.1-29.9-25.4-59c0-5.1,6.1-10.5,10.6-10.6
		c10.2-0.2,38.1,22,40.3,23C280.4,332.8,284.5,334.6,284.5,335.1z"/>
	<path class="st5" d="M270.5,337.9c0,0.3,0.1,0.6,0.3,0.9c0.2,0.3,0.3,0.5,0.6,0.8c0.4,0.5,0.9,0.9,1.4,1.2c0.2,0.2,0.6,0.3,0.6,0.2
		s0-0.4-0.2-0.6c-0.4-0.5-0.9-0.9-1.5-1.1c0.7,0.1,1.3,0.4,1.8,0.9c0.1,0.1,0.3,0.3,0.3,0.5c0.1,0.2,0.1,0.5-0.1,0.7
		c-0.2,0.2-0.5,0.2-0.7,0.1c-0.2-0.1-0.4-0.1-0.5-0.2c-0.6-0.4-1.1-0.8-1.5-1.4C270.6,339.3,270.5,338.6,270.5,337.9z"/>
	<path class="st12" d="M253.1,319.5c0.4,0.4,1.1,0.3,1.4-0.1c0.4-0.4,0.3-1.1-0.1-1.4s-1.1-0.3-1.4,0.1
		C252.6,318.4,252.7,319.1,253.1,319.5L253.1,319.5z"/>
	<path class="st12" d="M240.4,332.1c0.5,0.5,1.4,0.4,1.8-0.1c0.5-0.5,0.4-1.4-0.1-1.8c-0.5-0.5-1.4-0.4-1.8,0.1
		C239.8,330.8,239.8,331.7,240.4,332.1C240.4,332.1,240.4,332.1,240.4,332.1z"/>
	<path class="st5" d="M254.6,316.1c-2.5-1.2-4.9-2.6-7.1-4.2c0,0-0.2-0.3,0-0.2c0.9,0.4,1.8,0.8,2.6,1.3c-0.1,0-0.4-0.8-0.6-1.2
		c0,0,0-0.1,0,0c0.3,0.3,0.9,1.3,1,1.5s3.4,2.1,4.1,2.6C255,316.2,254.8,316.2,254.6,316.1z"/>
	<path class="st14" d="M241.9,317c-2.4,2.4-9.7,1.1-13.7-1.1c-0.3-0.1-5.1-10.1-6.3-12c-0.2-0.4,13.5-4.5,13.5-4.5
		c0.8,2.8,1.9,5.4,3.4,7.9C239,307.6,244.2,314.7,241.9,317z"/>
	<path class="st5" d="M235.4,299.4L235.4,299.4l0.2,0.8c0.2,0.7,0.6,1.9,1.2,3.2c0.5,1.4,1.2,2.7,2,3.9c0.1,0.1,0.1,0.2,0.2,0.2l0,0
		c0.1,0.1,0.2,0.4,0.4,0.6c-0.3,0.3-0.7,0.5-1.1,0.8c-6.5,3.9-13.5-2.7-16-5.3c0.1,0,0.2-0.1,0.2-0.1c0.3-0.1,0.8-0.3,1.4-0.5
		l0.4-0.1c0.9-0.3,2-0.7,3.1-1l1.1-0.4l2.4-0.7l1-0.3l1-0.3l0.4-0.1l0.2-0.1l1.1-0.3l0.6-0.2L235.4,299.4L235.4,299.4L235.4,299.4z"
		/>
	<path class="st14" d="M212.2,290.4c1,5,9.9,16.3,14.5,17.5c6.6,1.7,14.1-1.8,14.7-9c0.6-7-11.4-21.5-16.2-22.2
		C218.3,275.6,210.8,283,212.2,290.4z"/>
	<path class="st5" d="M219.6,300.6c2.6-2.7-1.8-7.9-1.8-7.9s3.7-5.3,0.9-9.4c0,0,7-1.7,9.1-6.3s-2.5-7.7-3.7-8.1s-1.5,3-1.5,3
		s-2.4-1.9-3.2-1.5s-0.1,2.3-0.1,2.3c-3.5,1.9-6.7,4.3-9.6,7.1c-3.8,4.1-1.7,10-1.7,10s-1.6,2.6-0.8,4.7S218,302.4,219.6,300.6z"/>
	<path class="st5" d="M216.8,293.8c3.9-3.1,3.9-7.8,0.9-11.6c0,0,0-0.1,0.1-0.1c3.1,3.2,3.8,9.6-0.9,11.8
		C216.9,294.1,216.7,293.9,216.8,293.8z"/>
	<path class="st5" d="M208.2,289.6C208.2,289.6,208.3,289.6,208.2,289.6c-0.4,1.5-1.2,2.9-0.9,4.5c0.3,1.9,1.9,3.1,3.4,4
		c2.4,1.4,5.9,2.8,8.7,2.2c0.1,0,0.1,0.1,0.1,0.1c0,0.1,0,0.1-0.1,0.1c-3.2,0.9-7.7-1.1-10.2-3C206.4,295.5,206.4,292.5,208.2,289.6
		z"/>
	<path class="st5" d="M223.5,280.4c2.6-0.7,4.6-2.9,5.2-5.5c0.5-3.1-2-4.8-4.6-5.8c-0.1,0-0.1-0.3,0-0.2c2.7,0.4,5.2,2.7,5,5.5
		s-2.8,5.7-5.6,6.4C223.4,280.8,223.3,280.5,223.5,280.4z"/>
	<path class="st14" d="M220.5,299.1c0,0-5-2.4-6.3-0.4s4.1,6.6,6.7,6.2c1.4-0.1,2.4-1.3,2.3-2.7c0,0,0-0.1,0-0.1L220.5,299.1z"/>
	<path class="st5" d="M215.7,300.1c1.8-0.1,3.5,0.6,4.8,1.9c-0.7-0.4-1.5-0.2-1.9,0.5c0,0.1-0.1,0.1-0.1,0.2c0,0,0.1,0.1,0.1,0.1
		c0.4-0.5,1.1-0.6,1.7-0.4c0.5,0.2,0.9,0.5,1.4,0.8c0.1,0.1,0.3-0.1,0.2-0.2l0,0C220.9,300.9,217.9,299,215.7,300.1L215.7,300.1z"/>
	<path class="st5" d="M224.9,289.6c0.3-0.4,0.5-0.7,0.7-1.1c0.3-0.3,0.5-0.8,0.5-1.2c0-0.3-0.3-0.5-0.6-0.6c-0.6,0-1.1,0.3-1.4,0.9
		c-0.4,0.5-0.5,1.1-0.5,1.7c0.1,0.4,0.4,0.7,0.8,0.6C224.7,289.9,224.8,289.8,224.9,289.6z"/>
	<path class="st5" d="M232.4,283.6c-0.4,0.1-0.8,0.3-1.2,0.3c-0.4,0.2-0.9,0.2-1.3,0.1c-0.3-0.1-0.4-0.4-0.4-0.7
		c0.2-0.6,0.7-1,1.3-1.1c0.6-0.2,1.2-0.2,1.7,0.1c0.3,0.2,0.5,0.6,0.3,0.9C232.7,283.5,232.6,283.6,232.4,283.6z"/>
	<path class="st5" d="M232.5,298.4c0.3,0.1,0.7,0.1,1,0c0.3-0.2,0.5-0.5,0.7-0.8h0.1c0,0.5-0.2,0.9-0.7,1.2
		c-0.4,0.2-0.8,0.1-1.1-0.2C232.5,298.5,232.5,298.4,232.5,298.4z"/>
	<path class="st5" d="M231.6,295.4c0.9,0.3,1.8,0.3,2.7-0.2c0.4-0.2,0.7-0.4,1-0.7l0.2-0.2l0.1-0.1c0.1-0.1,0.1-0.2,0-0.3l0,0
		c0,0,0-0.1-0.1-0.1l0,0l-0.1-0.1c-0.4-0.6-1.2-1.5-1.2-1.5c0.3-0.1,1.8-0.4,1.5-0.7c-2.1-2.6-4.5-5.1-7.1-7.2
		c-0.1-0.1-0.2,0-0.1,0.1c1.9,2.5,4.3,4.5,6.3,7c-0.5,0.1-1.1,0.3-1.5,0.6c-0.1,0.1,1.5,1.6,1.7,1.9l0,0c-0.9,0.9-2.1,1.3-3.4,1.2
		C231.5,295.3,231.5,295.4,231.6,295.4z"/>
	<path class="st5" d="M234.6,294.5c0,0.7-0.2,1.3-0.5,1.9c-0.2,0.3-0.5,0.6-0.8,0.7c-0.8,0.3-1.2-0.2-1.4-0.8
		c-0.1-0.3-0.2-0.7-0.3-1C232.6,295.4,233.7,295.1,234.6,294.5z"/>
	<path class="st15" d="M234.1,296.5c-0.2,0.3-0.5,0.6-0.8,0.7c-0.8,0.3-1.2-0.2-1.4-0.8C232.5,295.9,233.5,295.9,234.1,296.5z"/>
	<path class="st5" d="M227.3,292.6c0.2,0.2,0.5,0.3,0.7,0.3c0.3,0,0.6-0.1,0.8-0.3c0.2-0.2,0.3-0.5,0.3-0.8c0-0.3-0.1-0.5-0.3-0.7
		c-0.1-0.1-0.2-0.3-0.3-0.4c-0.2-0.2-0.5-0.4-0.8-0.5c0.2,0.2,0.3,0.3,0.4,0.5c0.1,0.2,0.2,0.4,0.3,0.5c0.2,0.4,0.2,0.8,0,1
		c-0.3,0.2-0.7,0.2-1,0c-0.4-0.2-0.8-0.5-1.1-0.8C226.6,291.9,226.9,292.3,227.3,292.6z"/>
	<path class="st5" d="M234.9,286.8c0.1,0.2,0.1,0.5,0.1,0.8c-0.1,0.3-0.2,0.6-0.5,0.7c-0.3,0.1-0.6,0.2-0.9,0.1
		c-0.2-0.1-0.5-0.3-0.6-0.5c-0.1-0.1-0.2-0.2-0.3-0.4c-0.2-0.3-0.3-0.6-0.3-0.9c0.1,0.2,0.2,0.4,0.4,0.6c0.1,0.2,0.3,0.3,0.4,0.5
		c0.3,0.3,0.7,0.5,1,0.3c0.3-0.2,0.4-0.6,0.3-1c-0.1-0.4-0.3-0.9-0.5-1.3C234.4,286,234.7,286.4,234.9,286.8z"/>
	<path class="st5" d="M227.8,277.7c1.5,1.1,3,2.3,4.3,3.6c1.3,1.3,2.6,2.7,3.8,4.2c1.1,1.5,2.2,3.1,3.1,4.7c0.9,1.7,1.6,3.4,2.1,5.2
		c-0.7-1.7-1.5-3.4-2.4-5c-0.9-1.6-2-3.2-3.1-4.6c-1.1-1.5-2.3-2.9-3.6-4.2C230.5,280.3,229.2,279,227.8,277.7z"/>
	<path class="st2" d="M288.4,330.5c0,2.1,7.3,3.8,16.3,3.8s16.3-1.7,16.3-3.8s-7.3-3.8-16.3-3.8S288.4,328.4,288.4,330.5z"/>
	<path class="st6" d="M291.9,329.8c0,0.6,1.2,1.1,3.1,1.5l0,0c0.8,0.2,1.6,0.3,2.5,0.4c2.4,0.3,4.8,0.4,7.1,0.4
		c2.9,0,5.7-0.2,8.6-0.6c0.9-0.1,1.7-0.3,2.5-0.5c1.1-0.3,1.7-0.7,1.7-1.1s-0.3-0.6-0.9-0.8c-0.7-0.3-1.4-0.5-2.1-0.6
		c-3.2-0.6-6.5-0.9-9.8-0.8c-3,0-6,0.2-8.9,0.6c-0.8,0.1-1.6,0.3-2.3,0.5C292.4,329,291.9,329.4,291.9,329.8z"/>
	<path class="st6" d="M321,330.2c0,0,0,0.1,0.1,0.1C321.1,330.3,321.1,330.3,321,330.2C321.1,330.2,321,330.2,321,330.2z"/>
	<path class="st6" d="M301.1,326.8c1.4-0.1,2.7-0.1,4-0.1h-0.4C303.5,326.7,302.3,326.7,301.1,326.8z"/>
	<path class="st6" d="M284.3,343.2c0,0.9,0,1.9,0.1,2.8c0.1,0.9,0.3,1.9,0.5,2.8c0.2,0.9,0.6,1.8,0.9,2.7c0.4,0.9,0.8,1.7,1.4,2.5
		c0.5,0.8,1.2,1.5,1.8,2.1c1.4,1.3,3,2.4,4.7,3.1c1.7,0.7,3.5,1.1,5.4,1.3c1.8,0.2,3.7,0.2,5.5,0.2c3.7,0,7.3-0.6,10.7-2
		c1.7-0.7,3.3-1.8,4.6-3c1.4-1.3,2.5-2.7,3.4-4.4c0.5-0.8,0.8-1.7,1.1-2.6c0.2-0.9,0.4-1.8,0.5-2.8c0.1-1.9,0.1-3.7-0.2-5.5
		c-0.3-1.8-0.7-3.6-1.2-5.4c-0.3-0.9-0.6-1.7-0.9-2.6c-0.2-0.4-0.3-0.9-0.5-1.3c-0.2-0.4-0.4-0.8-0.6-1.2l0,0l0,0
		c-0.3-0.4-0.7-0.7-1.2-1c-2.9-1.4-9.2-2.5-15.1-2.5c-9.4,0-14,1.9-14.8,2.2c-0.4,0.2-0.8,0.4-1.2,0.6c-0.2,0.1-0.4,0.2-0.6,0.4
		s-0.2,0.1-0.3,0.2l-0.1,0.1l-0.1,0.1c0,0-0.1,0-0.1,0.1l0,0c-0.3,0.4-0.5,0.8-0.7,1.2c-0.2,0.4-0.4,0.8-0.6,1.2
		c-0.4,0.9-0.7,1.7-1,2.6c-0.6,1.8-1,3.6-1.2,5.4C284.4,341.3,284.3,342.2,284.3,343.2z M288.3,330.5c0,0,0.1-0.1,0.1-0.1l0,0l0,0
		c0.3-1.2,3.1-2.3,7.4-3l0.4-0.1c0.9-0.1,1.9-0.2,2.9-0.3c0.6-0.1,1.2-0.1,1.9-0.1h0.2c1.4-0.1,2.7-0.1,4-0.1h1.5
		c0.8,0,1.5,0,2.2,0.1l0.9,0.1c2.2,0.1,4.3,0.4,6.5,0.9l0,0h0.1c2.7,0.6,4.4,1.5,4.7,2.4c0,0,0.1,0.1,0,0.1l0,0h0c0,0,0,0,0,0
		c0,0,0,0.1,0.1,0.1l0,0l0.1,0.1c0,0,0,0,0,0l0,0c0,1.5-3.8,2.8-9.2,3.4h-0.1c-0.9,0.1-1.7,0.2-2.6,0.2c-0.5,0-1.1,0.1-1.6,0.1
		c-0.9,0-1.8,0-2.8,0c-8.9,0-16.1-1.6-16.3-3.7l0,0L288.3,330.5z"/>
	<g class="st16">
		<path d="M284.3,343.2c0,0.9,0,1.9,0.1,2.8c0.1,0.9,0.3,1.9,0.5,2.8c0.2,0.9,0.6,1.8,0.9,2.7c0.4,0.9,0.8,1.7,1.4,2.5
			c0.5,0.8,1.2,1.5,1.8,2.1c1.4,1.3,3,2.4,4.7,3.1c1.7,0.7,3.5,1.1,5.4,1.3c1.8,0.2,3.7,0.2,5.5,0.2c3.7,0,7.3-0.6,10.7-2
			c1.7-0.7,3.3-1.8,4.6-3c1.4-1.3,2.5-2.7,3.4-4.4c0.5-0.8,0.8-1.7,1.1-2.6c0.2-0.9,0.4-1.8,0.5-2.8c0.1-1.9,0.1-3.7-0.2-5.5
			c-0.3-1.8-0.7-3.6-1.2-5.4c-0.3-0.9-0.6-1.7-0.9-2.6c-0.2-0.4-0.3-0.9-0.5-1.3c-0.2-0.4-0.4-0.8-0.6-1.2l0,0l0,0
			c-0.3-0.4-0.7-0.7-1.2-1c-2.9-1.4-9.2-2.5-15.1-2.5c-9.4,0-14,1.9-14.8,2.2c-0.4,0.2-0.8,0.4-1.2,0.6c-0.2,0.1-0.4,0.2-0.6,0.4
			s-0.2,0.1-0.3,0.2l-0.1,0.1l-0.1,0.1c0,0-0.1,0-0.1,0.1l0,0c-0.3,0.4-0.5,0.8-0.7,1.2c-0.2,0.4-0.4,0.8-0.6,1.2
			c-0.4,0.9-0.7,1.7-1,2.6c-0.6,1.8-1,3.6-1.2,5.4C284.4,341.3,284.3,342.2,284.3,343.2z M288.3,330.5c0,0,0.1-0.1,0.1-0.1l0,0l0,0
			c0.3-1.2,3.1-2.3,7.4-3l0.4-0.1c0.9-0.1,1.9-0.2,2.9-0.3c0.6-0.1,1.2-0.1,1.9-0.1h0.2c1.4-0.1,2.7-0.1,4-0.1h1.5
			c0.8,0,1.5,0,2.2,0.1l0.9,0.1c2.2,0.1,4.3,0.4,6.5,0.9l0,0h0.1c2.7,0.6,4.4,1.5,4.7,2.4c0,0,0.1,0.1,0,0.1l0,0h0c0,0,0,0,0,0
			c0,0,0,0.1,0.1,0.1l0,0l0.1,0.1c0,0,0,0,0,0l0,0c0,1.5-3.8,2.8-9.2,3.4h-0.1c-0.9,0.1-1.7,0.2-2.6,0.2c-0.5,0-1.1,0.1-1.6,0.1
			c-0.9,0-1.8,0-2.8,0c-8.9,0-16.1-1.6-16.3-3.7l0,0L288.3,330.5z"/>
	</g>
	<path class="st2" d="M290.1,336.8c0.1,0.3,0.1,0.5,0.1,0.8c0,0.2-0.1,0.5-0.1,0.7c-0.1,0.2-0.1,0.5-0.2,0.7
		c-0.1,0.2-0.2,0.5-0.4,0.7c-0.1-0.2-0.2-0.5-0.2-0.8c0-0.3,0-0.5,0.1-0.8c0.1-0.3,0.2-0.5,0.3-0.7
		C289.7,337.2,289.9,337,290.1,336.8z"/>
	<path class="st2" d="M290.1,347.7c0.1,0.2,0.2,0.5,0.3,0.8c0,0.2,0.1,0.5,0.1,0.7c0,0.2,0,0.5,0,0.8c0,0.3-0.1,0.5-0.2,0.8
		c-0.2-0.2-0.3-0.5-0.4-0.7c-0.1-0.3-0.1-0.5-0.1-0.8c0-0.3,0-0.5,0.1-0.8C289.8,348.2,289.9,348,290.1,347.7z"/>
	<path class="st2" d="M294.2,352.5c0.1,0.2,0.2,0.5,0.3,0.8c0.1,0.5,0.1,1,0.1,1.5c0,0.3-0.1,0.5-0.2,0.8c-0.2-0.2-0.3-0.5-0.4-0.7
		c-0.1-0.3-0.1-0.5-0.1-0.8c0-0.3,0-0.5,0.1-0.8C294,353,294.1,352.7,294.2,352.5z"/>
	<path class="st2" d="M293.4,342.4c0.1,0.3,0.2,0.5,0.2,0.8c0,0.2,0,0.5,0,0.8c0,0.2-0.1,0.5-0.1,0.7c-0.1,0.3-0.2,0.5-0.3,0.8
		c-0.2-0.2-0.3-0.5-0.3-0.8c-0.1-0.5,0-1.1,0.1-1.5C293.1,342.9,293.2,342.6,293.4,342.4z"/>
	<path class="st2" d="M296.6,338.5c0.1,0.3,0.2,0.5,0.2,0.8c0,0.2,0,0.5,0,0.8c0,0.2-0.1,0.5-0.1,0.7c-0.1,0.3-0.2,0.5-0.3,0.8
		c-0.2-0.2-0.3-0.5-0.3-0.8c0-0.3,0-0.5,0-0.8c0-0.3,0.1-0.5,0.2-0.8C296.3,339,296.5,338.8,296.6,338.5z"/>
	<path class="st2" d="M313.8,337c0.2,0.2,0.4,0.4,0.5,0.6c0.1,0.2,0.2,0.5,0.3,0.7c0.1,0.3,0.1,0.5,0.1,0.8c0,0.3-0.1,0.6-0.2,0.8
		c-0.2-0.2-0.3-0.5-0.4-0.7c-0.1-0.2-0.2-0.5-0.2-0.7c-0.1-0.2-0.1-0.5-0.1-0.8C313.7,337.5,313.7,337.3,313.8,337z"/>
	<path class="st2" d="M321,347c0.2,0.2,0.3,0.5,0.3,0.8c0.1,0.3,0.1,0.5,0.1,0.8c0,0.3-0.1,0.5-0.1,0.8c-0.1,0.3-0.2,0.5-0.4,0.7
		c-0.1-0.3-0.2-0.5-0.2-0.8c0-0.2,0-0.5,0-0.8c0-0.2,0-0.5,0.1-0.7C320.8,347.5,320.9,347.2,321,347z"/>
	<path class="st2" d="M316.9,351.2c0.1,0.2,0.3,0.5,0.3,0.8c0.1,0.3,0.1,0.5,0.1,0.8c0,0.3-0.1,0.5-0.1,0.8
		c-0.1,0.3-0.2,0.5-0.4,0.7c-0.1-0.3-0.2-0.5-0.2-0.8c0-0.2,0-0.5,0-0.7c0-0.3,0-0.5,0.1-0.8C316.7,351.7,316.8,351.4,316.9,351.2z"
		/>
	<path class="st2" d="M319.6,340c0.2,0.2,0.3,0.5,0.4,0.7c0.1,0.2,0.1,0.5,0.2,0.8c0,0.3,0,0.5,0,0.8c0,0.3-0.1,0.5-0.3,0.8
		c-0.1-0.2-0.2-0.5-0.3-0.8c-0.1-0.2-0.1-0.5-0.1-0.7c0-0.2,0-0.5,0-0.8C319.4,340.5,319.5,340.3,319.6,340z"/>
	<path class="st2" d="M296.6,347.4c0.1,0.2,0.2,0.5,0.3,0.7c0.1,0.2,0.1,0.5,0.1,0.7c0,0.2,0,0.5-0.1,0.7c-0.1,0.3-0.2,0.5-0.3,0.7
		c-0.1-0.2-0.2-0.5-0.3-0.7c-0.1-0.5-0.1-1,0-1.4C296.4,347.9,296.5,347.7,296.6,347.4z"/>
	<path class="st2" d="M305.2,337.3c0.1,0.2,0.2,0.5,0.3,0.7c0.1,0.5,0.1,1,0,1.4c-0.1,0.3-0.2,0.5-0.3,0.7c-0.1-0.2-0.2-0.5-0.3-0.7
		c-0.1-0.2-0.1-0.5-0.1-0.7c0-0.2,0-0.5,0.1-0.7C305,337.8,305.1,337.6,305.2,337.3z"/>
	<path class="st2" d="M304.7,347c0.1,0.2,0.2,0.5,0.3,0.7c0.1,0.2,0.1,0.5,0.1,0.7c0,0.2,0,0.5-0.1,0.7c-0.1,0.3-0.2,0.5-0.3,0.7
		c-0.1-0.2-0.2-0.5-0.3-0.7c-0.1-0.5-0.1-1,0-1.4C304.5,347.5,304.6,347.2,304.7,347z"/>
	<path class="st2" d="M301.7,341.6c0.1,0.2,0.2,0.5,0.3,0.7c0.1,0.2,0.1,0.5,0.1,0.7c0,0.2,0,0.5-0.1,0.7c-0.1,0.3-0.2,0.5-0.3,0.7
		c-0.1-0.2-0.2-0.5-0.3-0.7c-0.1-0.2-0.1-0.5-0.1-0.7c0-0.2,0-0.5,0.1-0.7C301.5,342.1,301.6,341.9,301.7,341.6z"/>
	<path class="st2" d="M301.2,351.8c0.1,0.2,0.2,0.5,0.3,0.7c0.1,0.2,0.1,0.5,0.1,0.7c0,0.2,0,0.5-0.1,0.7c-0.1,0.3-0.2,0.5-0.3,0.7
		c-0.1-0.2-0.2-0.5-0.3-0.7c-0.1-0.5-0.1-1,0-1.4C301,352.2,301.1,352,301.2,351.8z"/>
	<path class="st2" d="M309,354c0.1,0.2,0.2,0.5,0.3,0.7c0.1,0.2,0.1,0.5,0.1,0.7c0,0.2,0,0.5-0.1,0.7c-0.1,0.3-0.2,0.5-0.3,0.7
		c-0.1-0.2-0.2-0.5-0.3-0.7c-0.1-0.5-0.1-1,0-1.4C308.8,354.5,308.9,354.2,309,354z"/>
	<path class="st2" d="M309,341.6c0.1,0.2,0.2,0.5,0.3,0.7c0.1,0.2,0.1,0.5,0.1,0.7c0,0.2,0,0.5-0.1,0.7c-0.1,0.3-0.2,0.5-0.3,0.7
		c-0.1-0.2-0.2-0.5-0.3-0.7c-0.1-0.5-0.1-1,0-1.4C308.8,342.1,308.9,341.9,309,341.6z"/>
	<path class="st2" d="M313.1,346c0.1,0.2,0.2,0.5,0.3,0.7c0.1,0.2,0.1,0.5,0.1,0.7c0,0.2,0,0.5-0.1,0.7c0,0.3-0.1,0.5-0.3,0.7
		c-0.1-0.2-0.2-0.5-0.3-0.7c-0.1-0.2-0.1-0.5-0.1-0.7c0-0.2,0-0.5,0.1-0.7C312.9,346.5,313,346.2,313.1,346z"/>
	<path class="st9" d="M281.2,323.5c0.1,0.2,0.1,0.3,0.2,0.5c0.1,0.1,0.2,0.3,0.4,0.4l0,0.1h0.1l4.4-0.8c0.7-0.1,1.5-0.2,2.2-0.3h0.5
		c0.1,0,0.2,0.1,0.3,0.2c0.3,0.2,0.5,0.5,0.8,0.7c1,1.1,1.9,2.3,2.7,3.5l0.7,1.1c0.5,0.9,1.1,1.7,1.6,2.6l0,0
		c0.8,0.2,1.6,0.3,2.5,0.4l0,0c-0.5-1.2-1.1-2.4-1.8-3.5c-0.2-0.4-0.5-0.9-0.7-1.3c-0.9-1.6-2-3.1-3.2-4.4c-0.3-0.3-0.7-0.7-1-0.9
		c-0.4-0.3-0.9-0.5-1.4-0.6c-0.9-0.1-1.9-0.1-2.8,0.1c-1.8,0.3-3.5,0.8-5.2,1.4c-0.1,0.1-0.2,0.3-0.2,0.5
		C281.2,323.2,281.2,323.3,281.2,323.5z"/>
	<path class="st4" d="M313.3,331.5c0.9-0.1,1.7-0.3,2.5-0.5c0.2-0.4,0.5-1.1,0.9-2c1.1-2.8,2.8-7.1,3.3-8.4l0.1-0.4v-0.1l-0.1,0
		c-0.3-0.2-0.6-0.4-0.9-0.5c-0.3-0.2-0.6-0.3-1-0.3h-0.1v0.1c0,0.1-0.1,0.2-0.1,0.3c-0.5,1.2-2.2,5.5-3.4,8.7
		C314,329.7,313.5,330.9,313.3,331.5z"/>
	<path class="st6" d="M306.1,316.5h1c0.3,0,0.6,0,0.9,0s0.6,0,0.9,0.1c0.6,0.1,1.2,0.2,1.8,0.4c0.6,0.2,1.2,0.4,1.7,0.7
		c0.5,0.3,1,0.7,1.5,1.1v0h0.1c0.9,0,1.8,0.1,2.6,0.3c0.4,0.1,0.8,0.2,1.3,0.4c0.4,0.2,0.8,0.3,1.2,0.5c0.8,0.4,1.5,0.9,2.2,1.4
		c0.7,0.5,1.3,1.1,1.9,1.8l0.1,0.1h0.1c0.4,0.1,0.7,0.1,1.1,0.2c0.3,0.1,0.7,0.2,1,0.3c0.7,0.2,1.3,0.6,1.9,1
		c0.6,0.4,1.2,0.9,1.6,1.4c0.2,0.3,0.5,0.6,0.7,0.9c0.1,0.1,0.2,0.3,0.3,0.5c0.1,0.1,0.1,0.2,0.1,0.2c0,0,0,0.1,0.1,0.1v0.1l0,0
		c0,0,0,0.1,0,0.1v-0.1v-0.1c0,0,0-0.1,0-0.1s-0.1-0.2-0.1-0.3s-0.2-0.3-0.3-0.5c-0.1-0.2-0.3-0.4-0.4-0.6l-1.2-2.4l-1.9-3.9
		c-0.6-1.3-1.2-2.6-1.9-3.8s-1.3-2.5-2-3.7l-0.1-0.3l-0.3,0.1l-3.8,0.9l-3.8,1c-2.5,0.6-5,1.3-7.5,2l0,0L306.1,316.5z"/>
	<path class="st11" d="M314,318.9c1.3-1.2,2.7-2.3,4.1-3.4s2.8-2.2,4.3-3.2c-1.3,1.2-2.7,2.3-4.1,3.4S315.5,317.9,314,318.9z"/>
	<path class="st11" d="M323.3,323.4c-0.2-1.8-0.4-3.7-0.5-5.5s-0.3-3.7-0.3-5.5c0.2,1.8,0.4,3.7,0.5,5.5S323.3,321.5,323.3,323.4z"
		/>
	<path class="st14" d="M224.4,321c-2,16-3.9,47.9,3.5,53.4s34.1-0.2,43.2-2.3c3-0.7,4.6-24.7,1.4-24.8c-5.6-0.1-29.5,5.3-30.9,4.1
		c-0.9-0.8-3.8-19.9-7.6-30.3C229.2,307.5,225,316,224.4,321z"/>
	<path class="st14" d="M262.4,349.3c0,0,7.7-5.8,12.9-9.3c2.9-2,8.2-4.9,11-5.4c4.2-0.7,22.1-1,22.3,3.3c0.2,3.9-15.3,2.3-15.3,2.3
		s15.7,0.3,15,5.1s-17.9,0.6-17.9,0.6s16.1,0.7,14.7,5.5c-1.1,3.6-16.9,0.7-16.9,0.7s13.9,0.7,12.9,4.5c-1.1,4.2-15.8,2.4-15.8,2.4
		c-4.1,9.2-9.9,11.9-14.2,13.3C270,372.5,262.4,349.3,262.4,349.3z"/>
	<path class="st5" d="M287.8,339.7c1.9,0,3.7-0.1,5.6,0.1s3.7,0.3,5.5,0.6c2.4,0.3,4.7,1,7,1.9c-4.1-1.3-10.7-1.9-12.5-2
		S289.6,339.9,287.8,339.7C287.7,339.8,287.7,339.7,287.8,339.7z"/>
	<path class="st5" d="M287.1,346.3c2.4,0.1,4.7,0,7.1,0.2s4.6,0.5,6.9,0.9c0.2,0,0.1,0.1-0.1,0.1c-2.3-0.2-4.5-0.3-6.9-0.5
		S289.5,346.5,287.1,346.3L287.1,346.3z"/>
	<path class="st5" d="M285.6,351.9c3.6,0,7.2,0.4,10.8,1.1c0.2,0,0.1,0.1-0.1,0.1c-3.6-0.5-6.4-0.8-10.7-1.1
		C285.5,352.1,285.5,351.9,285.6,351.9z"/>
	<path class="st5" d="M236.4,329.1l2.5,10.8c0.4,1.8,0.8,3.6,1.3,5.4c0.4,1.8,0.9,3.6,1.5,5.3c0.1,0.2,0.2,0.5,0.1,0.3
		c0.2,0,0.4,0,0.6,0c0.4,0,0.9,0,1.4-0.1c0.9-0.1,1.8-0.2,2.8-0.3l5.5-0.7l11-1.6l-0.1,0c3.4-2.5,6.9-5,10.4-7.2
		c1.8-1.1,3.6-2.2,5.4-3.3c1.8-1.1,3.8-2,5.8-2.7c-2,0.8-3.9,1.7-5.7,2.8c-1.8,1.1-3.6,2.2-5.4,3.4c-3.5,2.4-6.9,4.8-10.3,7.4h0
		h-0.1c-3.6,0.7-7.3,1.2-11,1.8c-1.8,0.3-3.7,0.5-5.5,0.8c-0.9,0.1-1.9,0.2-2.8,0.3c-0.5,0-0.9,0.1-1.4,0.1c-0.3,0-0.5,0-0.8,0h-0.1
		c-0.1,0-0.2-0.1-0.2-0.1c-0.1-0.1-0.1-0.1-0.1-0.2l-0.2-0.4c-1.1-3.6-1.9-7.2-2.6-10.9C237.7,336.4,237.1,332.8,236.4,329.1z"/>
	<path class="st5" d="M237.7,330.7c0.1,0.7,0.1,1.4,0.1,2.1c0,0.7-0.1,1.4-0.2,2.1C237.6,333.6,237.6,332.1,237.7,330.7z"/>
	<path class="st6" d="M598.8,301.6C598,303,545.2,393,507.8,406c-37.7,13.1-179.5,13.9-220.4,4.9
		c-93.5-20.6-131.2-158.4-131.2-158.4s82.2,108.6,128.5,122.9c37.8,11.6,203.7,23.1,224.4,15.2C529.7,382.6,597.5,303.1,598.8,301.6
		z"/>
	<g class="st13">
		<path d="M156.8,254.5l4.2,8.9l4.1,8.9l8.3,17.7c1.4,3,2.8,5.9,4.2,8.9c0.7,1.5,1.4,2.9,2.2,4.3s1.8,2.7,2.7,4.1
			c1.9,2.6,3.9,5.2,6,7.8s4.1,5.1,6.2,7.6c-4.4-4.9-8.6-9.9-12.5-15.1c-1-1.3-1.9-2.6-2.8-4s-1.6-2.9-2.3-4.3
			c-1.4-2.9-2.9-5.9-4.3-8.8l-8.2-17.8l-4-8.9L156.8,254.5z"/>
		<path d="M166.6,267.9c1.7,2.8,3.4,5.7,5.1,8.6l5.1,8.6c0.8,1.4,1.7,2.9,2.6,4.3c0.9,1.4,2,2.6,3.2,3.8c1.2,1.2,2.4,2.3,3.6,3.4
			s2.5,2.2,3.8,3.3c-2.7-2-5.2-4.1-7.7-6.4c-1.2-1.1-2.3-2.4-3.3-3.8c-0.9-1.4-1.8-2.8-2.6-4.3c-1.7-2.9-3.3-5.8-4.9-8.6
			S168.1,270.8,166.6,267.9z"/>
		<path d="M598.8,301.6c-3.3,4.9-6.7,9.8-10.1,14.6c-3.4,4.9-6.9,9.7-10.3,14.5l-5.2,7.2c-0.9,1.2-1.8,2.4-2.7,3.5s-1.9,2.3-2.9,3.4
			c-1.9,2.3-3.8,4.6-5.7,6.9l-5.6,6.9c3.6-4.7,7.2-9.4,11-14c0.9-1.1,1.9-2.3,2.8-3.4s1.8-2.4,2.7-3.5l5.2-7.2l10.4-14.4
			L598.8,301.6z"/>
		<path d="M579,327.1c-1.4,2-2.9,3.9-4.4,5.8s-3,3.8-4.5,5.7s-3.1,3.8-4.7,5.6c-1.6,1.9-3.2,3.6-5,5.3c0.8-0.9,1.6-1.8,2.4-2.7
			s1.5-1.9,2.3-2.8l4.6-5.6l4.6-5.6C575.8,330.8,577.4,329,579,327.1z"/>
	</g>
</g>
</svg>
